<?xml version="1.0" encoding="UTF-8" standalone="no"?><!DOCTYPE svg PUBLIC "-//W3C//DTD SVG 1.1//EN" "http://www.w3.org/Graphics/SVG/1.1/DTD/svg11.dtd"><svg width="100%" height="100%" viewBox="0 0 9 9" version="1.1" xmlns="http://www.w3.org/2000/svg" xmlns:xlink="http://www.w3.org/1999/xlink" xml:space="preserve" xmlns:serif="http://www.serif.com/" style="fill-rule:evenodd;clip-rule:evenodd;stroke-linejoin:round;stroke-miterlimit:1.41421;"><g><g><path d="M9,1.5c0,-0.828 -0.672,-1.5 -1.5,-1.5l-6,0c-0.828,0 -1.5,0.672 -1.5,1.5l0,6c0,0.828 0.672,1.5 1.5,1.5l6,0c0.828,0 1.5,-0.672 1.5,-1.5l0,-6Z" style="fill:#d01d2f;"/><path d="M2.104,7.077l1.761,-2.689l-1.596,-2.465l1.217,0l1.033,1.656l1.013,-1.656l1.206,0l-1.603,2.503l1.761,2.651l-1.255,0l-1.143,-1.782l-1.146,1.782l-1.248,0Z" style="fill:#fff;fill-rule:nonzero;"/></g></g></svg>