<?xml version="1.0" encoding="UTF-8" standalone="no"?><!DOCTYPE svg PUBLIC "-//W3C//DTD SVG 1.1//EN" "http://www.w3.org/Graphics/SVG/1.1/DTD/svg11.dtd"><svg width="100%" height="100%" viewBox="0 0 452 452" version="1.1" xmlns="http://www.w3.org/2000/svg" xmlns:xlink="http://www.w3.org/1999/xlink" xml:space="preserve" xmlns:serif="http://www.serif.com/" style="fill-rule:evenodd;clip-rule:evenodd;stroke-linejoin:round;stroke-miterlimit:1.41421;"><path d="M446.324,367.381l-183.467,-325.689c-15.644,-28.444 -58.311,-28.444 -73.956,0l-183.466,325.689c-15.644,28.444 4.267,64 36.978,64l365.511,0c34.133,-1.422 54.044,-35.556 38.4,-64Z" style="fill:#ff2c18;fill-rule:nonzero;"/><path d="M225.879,63.025l183.467,325.689l-366.933,0l183.466,-325.689Z" style="fill:#fff;fill-rule:nonzero;"/><g><path d="M196.013,212.359l11.378,75.378c1.422,8.533 8.533,15.644 18.489,15.644c8.533,0 17.067,-7.111 18.489,-15.644l11.378,-75.378c2.844,-18.489 -11.378,-34.133 -29.867,-34.133c-18.49,-0.001 -31.29,15.644 -29.867,34.133Z" style="fill:#3f4448;fill-rule:nonzero;"/><circle cx="225.879" cy="336.092" r="17.067" style="fill:#3f4448;"/></g></svg>