<?xml version="1.0" encoding="UTF-8" standalone="no"?><!DOCTYPE svg PUBLIC "-//W3C//DTD SVG 1.1//EN" "http://www.w3.org/Graphics/SVG/1.1/DTD/svg11.dtd"><svg width="100%" height="100%" viewBox="0 0 12 13" version="1.1" xmlns="http://www.w3.org/2000/svg" xmlns:xlink="http://www.w3.org/1999/xlink" xml:space="preserve" xmlns:serif="http://www.serif.com/" style="fill-rule:evenodd;clip-rule:evenodd;stroke-linejoin:round;stroke-miterlimit:1.41421;"><g><path d="M11.896,11.391l-2.917,-2.917c0.783,-0.9 1.257,-2.073 1.257,-3.356c0,-2.824 -2.297,-5.118 -5.118,-5.118c-2.824,0 -5.118,2.297 -5.118,5.118c0,2.821 2.297,5.118 5.118,5.118c1.283,0 2.456,-0.474 3.356,-1.257l2.917,2.917c0.069,0.069 0.162,0.107 0.252,0.107c0.091,0 0.184,-0.035 0.253,-0.107c0.139,-0.138 0.139,-0.367 0,-0.505Zm-11.18,-6.273c0,-2.427 1.975,-4.399 4.399,-4.399c2.427,0 4.399,1.974 4.399,4.399c0,2.424 -1.972,4.402 -4.399,4.402c-2.424,0 -4.399,-1.975 -4.399,-4.402Z" style="fill:#fff;fill-rule:nonzero;"/></g></svg>