<?xml version="1.0" encoding="UTF-8" standalone="no"?><!DOCTYPE svg PUBLIC "-//W3C//DTD SVG 1.1//EN" "http://www.w3.org/Graphics/SVG/1.1/DTD/svg11.dtd"><svg width="100%" height="100%" viewBox="0 0 23 23" version="1.1" xmlns="http://www.w3.org/2000/svg" xmlns:xlink="http://www.w3.org/1999/xlink" xml:space="preserve" xmlns:serif="http://www.serif.com/" style="fill-rule:evenodd;clip-rule:evenodd;stroke-linejoin:round;stroke-miterlimit:1.41421;"><g><path d="M21.71,9.842c-0.207,-0.075 -0.436,0.032 -0.512,0.239c-0.453,1.244 -1.206,2.415 -2.178,3.387c-1.209,1.209 -2.683,2.055 -4.263,2.446c-1.534,0.379 -3.056,0.307 -4.403,-0.21c-1.038,-0.397 -2.224,-0.139 -3.021,0.659l-0.82,0.82l-1.194,-1.195l0.819,-0.819c0.799,-0.798 1.057,-1.984 0.659,-3.021c-0.732,-1.912 -0.567,-4.143 0.445,-6.183c0.26,0.154 0.542,0.269 0.836,0.339c-0.135,0.282 -0.252,0.57 -0.349,0.862c-0.314,0.936 -0.432,1.922 -0.342,2.852c0.131,1.353 0.683,2.554 1.597,3.474c0.004,0.004 0.009,0.009 0.013,0.013c0.921,0.922 2.127,1.478 3.487,1.61c0.202,0.019 0.408,0.029 0.615,0.029c0.742,0 1.505,-0.126 2.236,-0.371c1.133,-0.38 2.194,-1.044 3.07,-1.92c0.876,-0.876 1.54,-1.937 1.919,-3.07c0.315,-0.936 0.433,-1.923 0.342,-2.851c-0.132,-1.36 -0.688,-2.566 -1.61,-3.487c-0.921,-0.922 -2.127,-1.478 -3.486,-1.61c-0.929,-0.09 -1.915,0.028 -2.852,0.342c-0.355,0.119 -0.702,0.266 -1.039,0.438c-0.021,-0.078 -0.044,-0.156 -0.072,-0.234c-0.267,-0.756 -0.814,-1.363 -1.538,-1.709c-0.724,-0.345 -1.539,-0.388 -2.296,-0.121c-0.235,0.083 -0.459,0.195 -0.664,0.332c-0.184,0.122 -0.233,0.37 -0.111,0.553c0.122,0.183 0.369,0.233 0.552,0.111c0.152,-0.101 0.316,-0.183 0.489,-0.244c0.556,-0.197 1.155,-0.165 1.687,0.089c0.531,0.254 0.933,0.7 1.129,1.255c0.067,0.189 0.107,0.383 0.121,0.577c-0.839,0.19 -1.417,-0.001 -2.076,-0.219c-0.619,-0.205 -1.307,-0.432 -2.227,-0.291c0.05,-0.159 0.119,-0.313 0.206,-0.459c0.112,-0.189 0.05,-0.434 -0.14,-0.546c-0.189,-0.113 -0.434,-0.05 -0.546,0.139c-0.457,0.769 -0.548,1.694 -0.25,2.537c0.147,0.415 0.375,0.776 0.661,1.074c-1.179,2.28 -1.383,4.805 -0.551,6.974c0.285,0.744 0.097,1.596 -0.479,2.172l-3.237,3.237c-0.156,0.155 -0.156,0.408 0,0.564c0.078,0.077 0.18,0.116 0.282,0.116c0.102,0 0.204,-0.039 0.282,-0.116l0.804,-0.804l1.194,1.194l-2.742,2.743l-1.194,-1.195l0.875,-0.875c0.156,-0.156 0.156,-0.408 0,-0.564c-0.156,-0.156 -0.408,-0.156 -0.564,0l-1.157,1.157c-0.156,0.156 -0.156,0.408 0,0.564l1.758,1.758c0.075,0.075 0.176,0.117 0.282,0.117c0.106,0 0.207,-0.042 0.282,-0.117l5.458,-5.457c0.575,-0.576 1.428,-0.763 2.171,-0.478c1.5,0.575 3.188,0.658 4.88,0.239c1.721,-0.426 3.324,-1.344 4.636,-2.656c1.054,-1.054 1.871,-2.326 2.364,-3.679c0.075,-0.206 -0.032,-0.435 -0.238,-0.511Zm-13.508,0.283l1.086,-1.086l1.356,1.355c0.078,0.078 0.18,0.117 0.282,0.117c0.102,0 0.204,-0.039 0.282,-0.117c0.155,-0.156 0.155,-0.408 0,-0.564l-1.356,-1.355l1.806,-1.805l1.805,1.805l-4.172,4.171c-0.591,-0.701 -0.963,-1.562 -1.089,-2.521Zm-0.035,-1.093c0.02,-0.324 0.067,-0.65 0.14,-0.975l0.418,0.418l-0.558,0.557Zm5.86,-1.121l-1.805,-1.805l1.805,-1.805l1.805,1.805l-1.805,1.805Zm2.369,-1.241l1.805,1.805l-1.805,1.805l-1.805,-1.805l1.805,-1.805Zm-4.02,7.629c-0.959,-0.125 -1.82,-0.498 -2.521,-1.089l4.172,-4.171l1.805,1.805l-1.805,1.805l-1.437,-1.436c-0.155,-0.156 -0.408,-0.156 -0.564,0c-0.155,0.156 -0.155,0.408 0,0.564l1.437,1.436l-1.087,1.086Zm1.093,0.036l0.558,-0.558l0.417,0.418c-0.324,0.073 -0.651,0.119 -0.975,0.14Zm1.843,-0.401l-0.722,-0.721l1.806,-1.805l1.155,1.156c-0.665,0.597 -1.429,1.065 -2.239,1.37Zm2.803,-1.935l-1.155,-1.155l1.805,-1.805l0.721,0.721c-0.306,0.809 -0.774,1.574 -1.371,2.239Zm1.631,-3.107l-0.417,-0.417l0.557,-0.558c-0.02,0.324 -0.067,0.651 -0.14,0.975Zm0.105,-2.067l-1.086,1.086l-1.805,-1.805l1.802,-1.803c0.591,0.701 0.963,1.563 1.089,2.522Zm-4.174,-4.174c0.959,0.125 1.82,0.498 2.521,1.088l-1.802,1.803l-1.805,-1.805l1.086,-1.086Zm-1.093,-0.036l-0.557,0.558l-0.418,-0.418c0.324,-0.073 0.651,-0.12 0.975,-0.14Zm-3.098,2.062c0.184,-0.385 0.282,-0.796 0.293,-1.211c0.31,-0.175 0.633,-0.326 0.963,-0.45l0.721,0.721l-1.805,1.805l-0.428,-0.428c0.097,-0.137 0.183,-0.282 0.256,-0.437Zm-0.392,1.429l-1.806,1.805l-0.721,-0.721c0.103,-0.274 0.225,-0.544 0.365,-0.807c0.282,-0.014 0.566,-0.069 0.845,-0.168c0.337,-0.119 0.644,-0.293 0.912,-0.514l0.405,0.405Zm-4.52,-2.563c0.839,-0.19 1.417,0.001 2.076,0.219c0.486,0.161 1.014,0.335 1.662,0.335c0.179,0 0.367,-0.013 0.566,-0.044c-0.031,0.095 -0.068,0.189 -0.111,0.281c-0.254,0.532 -0.7,0.933 -1.256,1.13c-0.555,0.196 -1.154,0.165 -1.686,-0.089c-0.532,-0.254 -0.933,-0.7 -1.13,-1.256c-0.067,-0.188 -0.106,-0.382 -0.121,-0.576Zm-1.111,14.69l-1.194,-1.195l0.486,-0.486l1.194,1.194l-0.486,0.487Z" style="fill:#fff;fill-rule:nonzero;"/><path d="M22.263,5.344c-0.316,-1.249 -0.953,-2.378 -1.84,-3.266c-1.079,-1.078 -2.48,-1.769 -4.054,-1.996c-1.52,-0.219 -3.126,0.001 -4.646,0.638c-0.203,0.085 -0.298,0.318 -0.213,0.521c0.085,0.204 0.318,0.299 0.522,0.214c1.386,-0.58 2.846,-0.782 4.223,-0.583c1.402,0.202 2.648,0.814 3.604,1.77c0.797,0.797 1.346,1.772 1.631,2.897c0.274,1.082 0.283,2.272 0.028,3.442c-0.047,0.216 0.089,0.428 0.304,0.475c0.029,0.006 0.057,0.009 0.086,0.009c0.183,0 0.348,-0.127 0.389,-0.313c0.282,-1.291 0.27,-2.608 -0.034,-3.808Z" style="fill:#fff;fill-rule:nonzero;"/></g></svg>