<?xml version="1.0" encoding="UTF-8" standalone="no"?><!DOCTYPE svg PUBLIC "-//W3C//DTD SVG 1.1//EN" "http://www.w3.org/Graphics/SVG/1.1/DTD/svg11.dtd"><svg width="100%" height="100%" viewBox="0 0 23 23" version="1.1" xmlns="http://www.w3.org/2000/svg" xmlns:xlink="http://www.w3.org/1999/xlink" xml:space="preserve" xmlns:serif="http://www.serif.com/" style="fill-rule:evenodd;clip-rule:evenodd;stroke-linejoin:round;stroke-miterlimit:1.41421;"><g><path d="M1.033,3.436c0.143,0.142 0.336,0.221 0.537,0.219c0.055,0 0.111,-0.007 0.165,-0.018l2.372,2.37c0.002,0 0.002,0.004 0.004,0.006c0.002,0.002 0.004,0.002 0.006,0.004l2.171,2.169c0.005,0.007 0.011,0.012 0.016,0.018l0.02,0.023l0.025,0.028c0.011,0.022 0.023,0.043 0.037,0.064l0.048,0.098c0.046,0.101 0.07,0.212 0.068,0.323c0,0.05 -0.004,0.099 -0.012,0.148c-0.003,0.01 -0.006,0.02 -0.008,0.03c-0.035,0.152 -0.111,0.292 -0.219,0.405c-0.106,0.106 -0.166,0.25 -0.166,0.4c0,0.151 0.059,0.295 0.166,0.401l1.084,1.088l-7.158,7.183c-0.222,0.225 -0.252,0.576 -0.07,0.835c0.869,1.215 1.931,2.28 3.144,3.153c0.258,0.18 0.608,0.148 0.83,-0.075l7.157,-7.181l1.193,1.196c-1.101,1.178 -1.071,3.016 0.066,4.159c1.138,1.142 2.976,1.179 4.158,0.083l1.746,1.751c0.121,0.117 0.283,0.183 0.452,0.183c0.135,0 0.267,-0.041 0.378,-0.118c1.212,-0.874 2.273,-1.939 3.142,-3.155c0.175,-0.26 0.144,-0.606 -0.075,-0.83l-7.156,-7.188l1.083,-1.086c0.22,-0.221 0.22,-0.579 0,-0.8c-0.108,-0.111 -0.184,-0.25 -0.217,-0.402c-0.002,-0.009 -0.004,-0.018 -0.007,-0.027c-0.01,-0.05 -0.015,-0.102 -0.015,-0.153c-0.001,-0.111 0.023,-0.222 0.07,-0.323c0.007,-0.014 0.022,-0.048 0.027,-0.063l0.018,-0.035c0.015,-0.021 0.026,-0.039 0.033,-0.051l0.006,-0.011l0.003,-0.004c0.004,-0.004 0.018,-0.019 0.03,-0.034c0.01,-0.01 0.019,-0.021 0.028,-0.032l2.171,-2.169c0.001,0 0.004,-0.002 0.006,-0.004c0.001,-0.002 0.002,-0.004 0.004,-0.006l2.371,-2.371c0.054,0.011 0.11,0.017 0.165,0.018c0.201,0.001 0.394,-0.078 0.537,-0.219l0.813,-0.812c0.142,-0.142 0.222,-0.335 0.22,-0.536c-0.002,-0.219 -0.09,-0.429 -0.245,-0.583l-1.263,-1.261c-0.302,-0.315 -0.803,-0.327 -1.12,-0.025l-0.813,0.811c-0.142,0.143 -0.222,0.336 -0.22,0.537c0,0.056 0.006,0.111 0.018,0.165l-2.368,2.364c-0.003,0.003 -0.007,0.004 -0.01,0.007c-0.003,0.003 -0.004,0.007 -0.007,0.01l-2.138,2.136l-0.002,0.001l-0.06,0.057l-0.038,0.027l-0.034,0.024c-0.034,0.023 -0.07,0.042 -0.107,0.057c-0.163,0.076 -0.346,0.096 -0.52,0.057c-0.151,-0.035 -0.288,-0.112 -0.397,-0.222l-0.042,-0.042c-0.224,-0.216 -0.578,-0.216 -0.801,0l-1.083,1.084l-1.087,-1.092c-0.222,-0.215 -0.576,-0.212 -0.794,0.007l-0.045,0.045c-0.107,0.107 -0.242,0.183 -0.39,0.218c-0.184,0.043 -0.377,0.02 -0.545,-0.065c-0.029,-0.012 -0.057,-0.026 -0.083,-0.043l-0.034,-0.025c-0.014,-0.011 -0.03,-0.022 -0.045,-0.033c-0.019,-0.017 -0.039,-0.035 -0.055,-0.052l-2.142,-2.137c-0.003,-0.003 -0.004,-0.007 -0.007,-0.01c-0.003,-0.003 -0.007,-0.004 -0.01,-0.007l-2.37,-2.366c0.012,-0.054 0.018,-0.11 0.018,-0.165c0.002,-0.201 -0.078,-0.395 -0.22,-0.537l-0.813,-0.811c-0.317,-0.302 -0.818,-0.29 -1.12,0.025l-1.262,1.26c-0.156,0.155 -0.244,0.365 -0.246,0.584c-0.001,0.201 0.078,0.394 0.22,0.536l0.813,0.812Zm6.341,3.081l-0.847,0.848l-1.619,-1.618l0.847,-0.847l1.619,1.617Zm-2.997,-1.3l-2.014,-2.014l0.846,-0.845l2.015,2.012l-0.847,0.847Zm7.998,13.157c0.001,-0.913 0.553,-1.735 1.398,-2.081c-0.534,0.908 -1.1,2.475 -0.075,4.129c-0.805,-0.364 -1.322,-1.165 -1.323,-2.048Zm2.409,2.242c-1.809,-2.011 -0.419,-3.975 0.003,-4.483c1.178,0.082 2.09,1.062 2.09,2.243c-0.001,1.181 -0.916,2.159 -2.093,2.24Zm6.937,-1.752c-0.794,1.094 -1.753,2.058 -2.845,2.856l-1.725,-1.733c0.761,-1.183 0.596,-2.736 -0.397,-3.733c-0.993,-0.997 -2.546,-1.168 -3.732,-0.411l-1.244,-1.247l2.847,-2.857l7.096,7.125Zm-4.976,-13.964l0.847,0.847l-1.619,1.618l-0.847,-0.849l1.619,-1.616Zm3.393,-1.697l-2.016,2.014l-0.847,-0.847l2.016,-2.012l0.847,0.845Zm0.262,-2.454c0.023,-0.002 0.047,0.007 0.062,0.025l1.262,1.26c0.018,0.015 0.027,0.037 0.026,0.06l-0.811,0.81c-0.007,0.002 -0.014,0.002 -0.021,0l-1.325,-1.318c-0.003,-0.008 -0.005,-0.016 -0.004,-0.025l0.811,-0.812Zm-7.664,6.116c0.191,0.163 0.418,0.278 0.662,0.337c0.333,0.077 0.681,0.042 0.992,-0.099c0.06,-0.024 0.119,-0.054 0.175,-0.088l0.908,0.912c-0.013,0.021 -0.025,0.041 -0.032,0.057l-0.019,0.038c-0.015,0.029 -0.028,0.06 -0.04,0.091c-0.091,0.197 -0.137,0.411 -0.135,0.628c-0.001,0.115 0.011,0.23 0.037,0.342c0.002,0.007 0.004,0.015 0.007,0.023c0.052,0.222 0.152,0.429 0.292,0.609l-11.96,12.003c-1.091,-0.797 -2.05,-1.76 -2.843,-2.853l11.956,-12Zm-3.631,0.335c0.244,-0.057 0.47,-0.173 0.66,-0.337l0.957,0.96l-2.845,2.855l-0.962,-0.963c0.136,-0.176 0.235,-0.378 0.289,-0.593c0.005,-0.014 0.01,-0.029 0.013,-0.044c0.024,-0.111 0.036,-0.224 0.036,-0.337c0.002,-0.219 -0.045,-0.435 -0.136,-0.633c-0.015,-0.033 -0.028,-0.061 -0.042,-0.089l-0.018,-0.035l-0.017,-0.034c-0.004,-0.009 -0.009,-0.017 -0.013,-0.024l0.91,-0.91c0.047,0.029 0.097,0.055 0.149,0.075c0.318,0.151 0.677,0.189 1.019,0.108l0,0.001Zm-8.329,-5.165l1.261,-1.26c0.015,-0.016 0.034,-0.025 0.056,-0.026l0.007,0l0.812,0.81c0.001,0.009 0,0.019 -0.004,0.027l-1.326,1.318c-0.006,0 -0.013,0 -0.019,0l-0.813,-0.809c-0.002,-0.023 0.008,-0.045 0.026,-0.06Z" style="fill:#fff;fill-rule:nonzero;"/></g></svg>