<?xml version="1.0" encoding="UTF-8" standalone="no"?><!DOCTYPE svg PUBLIC "-//W3C//DTD SVG 1.1//EN" "http://www.w3.org/Graphics/SVG/1.1/DTD/svg11.dtd"><svg width="100%" height="100%" viewBox="0 0 23 18" version="1.1" xmlns="http://www.w3.org/2000/svg" xmlns:xlink="http://www.w3.org/1999/xlink" xml:space="preserve" xmlns:serif="http://www.serif.com/" style="fill-rule:evenodd;clip-rule:evenodd;stroke-linejoin:round;stroke-miterlimit:1.41421;"><g><g><path d="M20.492,5.66c-0.116,-0.274 -0.222,-0.522 -0.424,-0.664c-0.08,-0.173 -0.224,-0.375 -0.447,-0.631c-0.144,-0.167 -0.3,-0.322 -0.452,-0.473c-0.195,-0.194 -0.518,-0.516 -0.549,-0.653c0.01,-0.024 0.016,-0.049 0.022,-0.075c0.109,-0.559 0.323,-1.454 0.46,-1.693c0.053,-0.094 0.179,-0.298 0.037,-0.541c-0.084,-0.146 -0.242,-0.221 -0.41,-0.221l0,0c-0.145,0 -0.235,0.025 -0.345,0.13c-0.007,-0.073 -0.031,-0.109 -0.079,-0.183c-0.092,-0.14 -0.247,-0.183 -0.415,-0.183c-0.001,0 -0.003,0 -0.003,0c-0.166,0 -0.416,-0.042 -1.191,1.04c-0.019,-0.016 -0.038,-0.057 -0.054,-0.071c-0.364,-0.312 -0.973,-0.847 -2.164,-0.847c-0.148,0 -0.302,0.003 -0.459,0.019c-0.226,0.023 -0.399,0.199 -0.422,0.419c-0.293,-0.118 -0.64,-0.283 -1.049,-0.473c-0.775,-0.362 -1.523,-0.56 -2.223,-0.56l-0.001,0c-2.081,0 -3.027,1.589 -3.066,1.656c-0.117,0.2 -0.072,0.461 0.105,0.608c0.088,0.073 0.195,0.113 0.302,0.113c0.11,0 0.22,-0.036 0.309,-0.113c0.007,-0.006 0.829,-0.693 1.874,-0.693c0.214,0 0.425,0.03 0.632,0.088c-0.842,0.034 -1.436,0.268 -1.812,0.714c-0.143,0.169 -0.149,0.414 -0.016,0.59c0.022,0.029 0.047,0.055 0.075,0.078c-0.078,0.007 -0.161,0.011 -0.251,0.011c-0.343,0 -1.207,-0.065 -1.797,-0.666c-0.093,-0.093 -0.215,-0.141 -0.337,-0.141c-0.113,0 -0.226,0.041 -0.316,0.122c-0.188,0.169 -0.21,0.456 -0.049,0.651c0.037,0.045 0.574,0.688 1.393,1.196c-0.49,0.039 -1.629,0.219 -2.076,1.045c-0.083,0.154 -0.073,0.336 0.016,0.477c-0.117,-0.032 -0.238,-0.068 -0.363,-0.108c-0.657,-0.214 -1.336,-0.322 -2.019,-0.322c-1.567,0 -2.635,0.568 -2.68,0.593c-0.211,0.114 -0.303,0.368 -0.214,0.59c0.073,0.184 0.25,0.298 0.439,0.298c0.04,0 0.082,-0.005 0.123,-0.016c0.005,-0.002 0.631,-0.167 1.278,-0.167c1.104,0 1.189,0.444 1.217,0.59c0.017,0.086 0.035,0.242 -0.025,0.315c-0.06,0.072 -0.251,0.149 -0.61,0.149c-0.452,0 -0.909,-0.119 -0.913,-0.121c-0.04,-0.01 -0.081,-0.015 -0.121,-0.015c-0.169,0 -0.328,0.09 -0.414,0.242c-0.084,0.151 -0.077,0.332 0.008,0.474c-0.166,-0.002 -0.336,-0.009 -0.505,-0.023c-0.013,-0.001 -0.026,-0.002 -0.039,-0.002c-0.227,0 -0.424,0.163 -0.465,0.39c-0.042,0.24 0.104,0.473 0.339,0.538c2.658,0.738 9.777,3.261 10.784,6.025c0.217,0.596 0.129,1.167 -0.269,1.749c-0.131,0.19 -0.105,0.445 0.06,0.606c0.091,0.088 0.21,0.133 0.329,0.133c0.098,0 0.196,-0.03 0.279,-0.091c0.066,-0.048 1.606,-1.218 1.321,-4.865c0.279,-0.516 1.374,-2.534 2.133,-3.765c0.197,-0.319 0.301,-0.353 0.302,-0.354c0.056,0.006 0.238,0.142 0.346,0.223c0.293,0.218 0.695,0.518 1.237,0.518c0.059,0 0.12,-0.004 0.18,-0.011c0.022,-0.003 0.045,-0.004 0.068,-0.004c0.387,0 0.989,0.334 1.462,0.814c0.33,0.333 0.453,0.59 0.47,0.688c-0.113,0.203 -0.062,0.464 0.129,0.607c0.113,0.085 0.706,0.508 1.264,0.508c0.292,0 0.541,-0.114 0.711,-0.32c0.333,-0.087 0.738,-0.305 0.892,-0.739c0.124,-0.071 0.242,-0.178 0.328,-0.332c0.298,-0.536 0.078,-1.364 -0.692,-2.609c-0.729,-1.18 -1.017,-1.857 -1.188,-2.262Zm1.143,4.843c-0.02,0.613 -0.771,0.672 -0.771,0.672c-0.087,0.204 -0.244,0.275 -0.423,0.275c-0.428,0 -0.979,-0.413 -0.979,-0.413c0.399,-0.552 -1.236,-2.204 -2.346,-2.204c-0.042,0 -0.084,0.002 -0.125,0.007c-0.042,0.006 -0.083,0.008 -0.123,0.008c-0.701,0 -1.117,-0.74 -1.589,-0.74c-0.211,0 -0.434,0.148 -0.698,0.578c-0.889,1.442 -2.213,3.912 -2.213,3.912c0.316,3.537 -1.118,4.584 -1.118,4.584c3.17,-4.624 -10.777,-8.497 -10.777,-8.497c0.216,0.018 0.421,0.026 0.614,0.026c1.325,0 2.093,-0.362 2.093,-0.362c-0.201,0.066 -0.39,0.092 -0.566,0.092c-0.72,0 -1.193,-0.447 -1.193,-0.447c0,0 0.511,0.137 1.035,0.137c0.62,0 1.26,-0.192 1.099,-1.026c-0.15,-0.781 -0.939,-0.974 -1.681,-0.974c-0.723,0.001 -1.401,0.184 -1.401,0.184c0,0 0.989,-0.537 2.455,-0.537c0.563,0 1.197,0.08 1.872,0.299c0.667,0.217 1.185,0.303 1.572,0.303c1.024,0 1.134,-0.602 0.661,-0.975c-0.197,-0.155 -0.396,-0.209 -0.578,-0.209c-0.419,0 -0.746,0.288 -0.746,0.288c0,0 0.438,-0.808 1.889,-0.808c0.12,0 0.248,0.006 0.384,0.018c0.149,0.013 0.292,0.02 0.429,0.02c1.468,0 2.179,-0.712 2.179,-0.712c-0.427,0.257 -0.853,0.36 -1.261,0.36c-1.634,0 -2.987,-1.644 -2.987,-1.644c0.577,0.587 1.417,0.806 2.134,0.806c0.78,0 1.413,-0.259 1.402,-0.589c-0.009,-0.289 -0.187,-0.367 -0.378,-0.367c-0.227,0 -0.471,0.11 -0.471,0.11c0.38,-0.451 1.05,-0.55 1.666,-0.55c0.482,0 0.93,0.061 1.18,0.061c0.326,0 0.315,-0.103 -0.396,-0.578c-0.566,-0.377 -1.124,-0.511 -1.631,-0.511c-1.245,0 -2.183,0.808 -2.183,0.808c0,0 0.825,-1.41 2.659,-1.41c0.574,0 1.247,0.138 2.024,0.501c1.506,0.703 2.308,0.921 2.712,0.921c0.47,0 0.4,-0.296 0.272,-0.466c-0.237,-0.317 -1.265,-0.376 -1.265,-0.376c0.146,-0.015 0.282,-0.022 0.411,-0.022c1.515,0 1.897,0.966 2.263,0.966c0.092,0 0.182,-0.061 0.29,-0.213c0.406,-0.574 0.763,-0.96 0.859,-0.96c0.039,0 0.034,0.066 -0.029,0.209c-0.217,0.494 -0.138,1.146 -0.138,1.146c0.271,-0.135 0.962,-1.053 1.006,-1.053c0.007,0 -0.004,0.025 -0.038,0.085c-0.237,0.415 -0.513,1.837 -0.513,1.837c-0.198,0.475 0.573,1.008 1.086,1.601c0.514,0.593 0.396,0.672 0.396,0.672c0.395,0.02 0.178,0.494 1.62,2.825c1.442,2.332 0.355,2.332 0.355,2.332Zm-15.663,-4.626c0.017,-0.012 0.034,-0.024 0.05,-0.038c0.053,-0.045 0.243,-0.171 0.433,-0.171c0.101,0 0.192,0.035 0.285,0.109c0.03,0.023 0.051,0.044 0.064,0.061c-0.059,0.029 -0.187,0.069 -0.432,0.069c-0.121,0 -0.254,-0.01 -0.4,-0.03Z" style="fill:#fff;fill-rule:nonzero;"/><path d="M18.002,5.119c-1.239,-0.275 -0.93,-0.661 -0.882,-0.712c-0.059,0.061 -0.645,0.714 0.744,0.939c1.457,0.236 0.078,0.837 1.683,1.034c0,-0.001 -0.216,-0.965 -1.545,-1.261Z" style="fill:#fff;fill-rule:nonzero;"/></g></g></svg>