<?xml version="1.0" encoding="UTF-8" standalone="no"?><!DOCTYPE svg PUBLIC "-//W3C//DTD SVG 1.1//EN" "http://www.w3.org/Graphics/SVG/1.1/DTD/svg11.dtd"><svg width="100%" height="100%" viewBox="0 0 16 16" version="1.1" xmlns="http://www.w3.org/2000/svg" xmlns:xlink="http://www.w3.org/1999/xlink" xml:space="preserve" xmlns:serif="http://www.serif.com/" style="fill-rule:evenodd;clip-rule:evenodd;stroke-linejoin:round;stroke-miterlimit:1.41421;"><g><path id="Info" d="M7.875,3.937c-0.543,0 -0.984,0.441 -0.984,0.985c0,0.543 0.441,0.984 0.984,0.984c0.543,0 0.984,-0.44 0.984,-0.984c0,-0.544 -0.44,-0.985 -0.984,-0.985Zm0,2.954c-0.543,0 -0.984,0.44 -0.984,0.984l0,2.953c0,0.543 0.441,0.984 0.984,0.984c0.543,0 0.984,-0.441 0.984,-0.984l0,-2.953c0,-0.543 -0.44,-0.984 -0.984,-0.984Zm0,-6.891c-4.342,0 -7.875,3.533 -7.875,7.875c0,4.342 3.533,7.875 7.875,7.875c4.342,0 7.875,-3.533 7.875,-7.875c0,-4.342 -3.533,-7.875 -7.875,-7.875Zm0,14.273c-3.528,0 -6.398,-2.87 -6.398,-6.398c0,-3.528 2.87,-6.398 6.398,-6.398c3.528,0 6.398,2.87 6.398,6.398c0,3.528 -2.87,6.398 -6.398,6.398Z" style="fill:#f31212;fill-rule:nonzero;"/></g></svg>