<?xml version="1.0" encoding="UTF-8" standalone="no"?><!DOCTYPE svg PUBLIC "-//W3C//DTD SVG 1.1//EN" "http://www.w3.org/Graphics/SVG/1.1/DTD/svg11.dtd"><svg width="100%" height="100%" viewBox="0 0 23 23" version="1.1" xmlns="http://www.w3.org/2000/svg" xmlns:xlink="http://www.w3.org/1999/xlink" xml:space="preserve" xmlns:serif="http://www.serif.com/" style="fill-rule:evenodd;clip-rule:evenodd;stroke-linejoin:round;stroke-miterlimit:1.41421;"><g><path d="M9.391,0.814l0.399,0.621c1.457,-0.913 3.307,-0.913 4.764,0l0.398,-0.621c-1.694,-1.085 -3.866,-1.085 -5.561,0Z" style="fill:#fff;fill-rule:nonzero;"/><path d="M7.746,5.164l-0.738,0c-0.001,0.682 0.134,1.358 0.398,1.987l0.681,-0.284c-0.226,-0.54 -0.342,-1.119 -0.341,-1.703Z" style="fill:#fff;fill-rule:nonzero;"/><path d="M13.874,9.249c-0.539,0.226 -1.118,0.342 -1.702,0.341l0,0.738c0.682,0.001 1.358,-0.134 1.987,-0.398l-0.285,-0.681Z" style="fill:#fff;fill-rule:nonzero;"/><path d="M16.599,5.164c0.001,0.584 -0.115,1.163 -0.341,1.702l0.681,0.284c0.264,-0.629 0.399,-1.304 0.397,-1.986l-0.737,0Z" style="fill:#fff;fill-rule:nonzero;"/><path d="M12.172,1.475c-2.037,0 -3.688,1.651 -3.688,3.689c0,2.037 1.651,3.688 3.688,3.688c2.037,-0.002 3.687,-1.652 3.689,-3.688c0,-2.037 -1.652,-3.689 -3.689,-3.689Zm0,6.64c-1.629,0 -2.951,-1.322 -2.951,-2.951c0,-1.63 1.322,-2.951 2.951,-2.951c1.63,0 2.951,1.321 2.951,2.951c-0.002,1.629 -1.322,2.949 -2.951,2.951Z" style="fill:#fff;fill-rule:nonzero;"/><path d="M12.984,5.046l-0.443,-0.148l0,-0.946c0.206,0.072 0.35,0.257 0.369,0.474l0.738,0c-0.033,-0.623 -0.492,-1.139 -1.107,-1.245l0,-0.231l-0.738,0l0,0.231c-0.614,0.106 -1.073,0.622 -1.106,1.245c0.014,0.398 0.282,0.743 0.664,0.855l0.442,0.148l0,0.946c-0.205,-0.072 -0.349,-0.257 -0.368,-0.474l-0.738,0c0.033,0.623 0.492,1.14 1.106,1.246l0,0.23l0.738,0l0,-0.23c0.615,-0.106 1.074,-0.623 1.107,-1.246c-0.015,-0.398 -0.282,-0.742 -0.664,-0.855Zm-1.181,-0.393l-0.21,-0.071c-0.093,-0.031 -0.158,-0.096 -0.158,-0.156c0.019,-0.217 0.163,-0.402 0.368,-0.474l0,0.701Zm0.738,1.722l0,-0.7l0.21,0.07c0.094,0.032 0.159,0.096 0.159,0.156c-0.019,0.217 -0.163,0.403 -0.369,0.474Z" style="fill:#fff;fill-rule:nonzero;"/><path d="M22.023,15.231l-1.214,-1.215l1.214,-1.214c0.144,-0.144 0.144,-0.378 0,-0.522l-4.795,-4.795c-0.144,-0.144 -0.377,-0.144 -0.521,0l-4.719,4.719l-5.088,-5.088c-0.144,-0.144 -0.377,-0.144 -0.521,0l-4.795,4.795c-0.144,0.144 -0.144,0.378 0,0.522l2.69,2.69l-4.274,0l0,0.738l4.795,0c0.05,0 0.1,-0.011 0.145,-0.03l2.513,-1.077l5.457,0l0,1.475l-4.057,0c-0.204,0 -0.369,0.166 -0.369,0.369c0,0.144 0.083,0.275 0.214,0.335l4.795,2.213c0.121,0.055 0.262,0.041 0.369,-0.037l6.388,-4.61l0.972,0.972l-7.342,6.291l-2.01,0l-6.947,-2.559c-0.041,-0.015 -0.084,-0.023 -0.128,-0.023l-4.795,0l0,0.738l4.729,0l6.947,2.559c0.041,0.015 0.084,0.023 0.127,0.023l2.214,0c0.088,0 0.173,-0.031 0.239,-0.089l7.746,-6.639c0.155,-0.133 0.173,-0.366 0.041,-0.52c-0.007,-0.008 -0.013,-0.014 -0.02,-0.021Zm-14.646,-1.215c-0.05,0 -0.099,0.01 -0.145,0.03l-0.09,0.037c0.364,-0.945 1.426,-1.416 2.371,-1.052c0.46,0.177 0.829,0.533 1.025,0.985l-3.161,0Zm3.949,0c-0.323,-1.096 -1.331,-1.847 -2.473,-1.844c-1.306,0.008 -2.403,0.983 -2.564,2.278l-1.152,0.494l-2.771,-2.772l4.273,-4.274l6.118,6.118l-1.431,0Zm2.281,4.37l-3.075,-1.419l2.747,0c0.204,0 0.369,-0.165 0.369,-0.369l0,-1.691l2.003,2.003l-2.044,1.476Zm0.075,-4.488c0.14,-0.787 0.826,-1.36 1.626,-1.357c0.914,-0.002 1.657,0.738 1.659,1.653c0.001,0.8 -0.57,1.487 -1.357,1.632l-1.928,-1.928Zm2.527,2.526c0.148,-0.06 0.289,-0.135 0.422,-0.223l-0.375,0.27l-0.047,-0.047Zm3.839,-2.69l-3.251,2.348c1.036,-0.825 1.206,-2.334 0.381,-3.369c-0.825,-1.036 -2.334,-1.206 -3.369,-0.381c-0.321,0.255 -0.57,0.589 -0.725,0.968l-0.575,-0.575l4.458,-4.458l4.274,4.274l-1.193,1.193Z" style="fill:#fff;fill-rule:nonzero;"/></g></svg>