<?xml version="1.0" encoding="UTF-8" standalone="no"?><!DOCTYPE svg PUBLIC "-//W3C//DTD SVG 1.1//EN" "http://www.w3.org/Graphics/SVG/1.1/DTD/svg11.dtd"><svg width="100%" height="100%" viewBox="0 0 21 23" version="1.1" xmlns="http://www.w3.org/2000/svg" xmlns:xlink="http://www.w3.org/1999/xlink" xml:space="preserve" xmlns:serif="http://www.serif.com/" style="fill-rule:evenodd;clip-rule:evenodd;"><g><path d="M15.425,9.831l0,-4.258c0,-0.122 -0.056,-0.235 -0.136,-0.324l-4.774,-5.013c-0.089,-0.094 -0.216,-0.145 -0.342,-0.145l-7.569,0c-1.397,0 -2.513,1.139 -2.513,2.537l0,14.312c0,1.397 1.116,2.518 2.513,2.518l5.975,0c1.13,1.876 3.184,3.133 5.524,3.133c3.554,0 6.457,-2.889 6.457,-6.448c0.005,-3.109 -2.227,-5.707 -5.135,-6.312Zm-4.783,-8.094l3.203,3.371l-2.078,0c-0.619,0 -1.125,-0.511 -1.125,-1.13l0,-2.241Zm-8.038,16.783c-0.877,0 -1.575,-0.703 -1.575,-1.58l0,-14.312c0,-0.882 0.698,-1.599 1.575,-1.599l7.1,0l0,2.949c0,1.14 0.924,2.068 2.063,2.068l2.72,0l0,3.663c-0.14,-0.005 -0.253,-0.019 -0.375,-0.019c-1.637,0 -3.142,0.628 -4.277,1.613l-5.955,0c-0.258,0 -0.469,0.211 -0.469,0.469c0,0.258 0.211,0.469 0.469,0.469l5.083,0c-0.333,0.469 -0.61,0.938 -0.825,1.454l-4.258,0c-0.258,0 -0.469,0.211 -0.469,0.469c0,0.258 0.211,0.469 0.469,0.469l3.953,0c-0.117,0.469 -0.178,0.989 -0.178,1.51c0,0.844 0.164,1.678 0.459,2.382l-5.51,0l0,-0.005Zm11.503,3.137c-3.038,0 -5.51,-2.471 -5.51,-5.51c0,-3.038 2.467,-5.51 5.51,-5.51c3.044,0 5.51,2.472 5.51,5.51c0,3.039 -2.471,5.51 -5.51,5.51Z" style="fill:#fff;fill-rule:nonzero;stroke:#fff;stroke-width:0.04px;"/><path d="M3.88,9.892l4.75,0c0.258,0 0.469,-0.212 0.469,-0.469c0,-0.258 -0.211,-0.469 -0.469,-0.469l-4.75,0c-0.258,0 -0.469,0.211 -0.469,0.469c0,0.257 0.211,0.469 0.469,0.469Z" style="fill:#fff;fill-rule:nonzero;stroke:#fff;stroke-width:0.04px;"/><path d="M13.953,13.254c0.037,0.009 0.075,0.014 0.112,0.014c0.047,0 0.089,-0.005 0.132,-0.019c0.619,0.052 1.102,0.568 1.102,1.196c0,0.258 0.211,0.469 0.468,0.469c0.258,0 0.469,-0.211 0.469,-0.469c0,-1.032 -0.731,-1.895 -1.702,-2.096l0,-0.3c0,-0.258 -0.211,-0.469 -0.469,-0.469c-0.258,0 -0.469,0.211 -0.469,0.469l0,0.319c-0.938,0.225 -1.636,1.074 -1.636,2.077c0,1.182 0.961,2.138 2.138,2.138c0.661,0 1.201,0.54 1.201,1.201c0,0.661 -0.535,1.205 -1.201,1.205c-0.661,0 -1.2,-0.539 -1.2,-1.2c0,-0.258 -0.212,-0.469 -0.469,-0.469c-0.258,0 -0.469,0.211 -0.469,0.469c0,1.008 0.698,1.852 1.636,2.077l0,0.483c0,0.258 0.211,0.469 0.469,0.469c0.258,0 0.469,-0.211 0.469,-0.469l0,-0.469c0.971,-0.202 1.702,-1.064 1.702,-2.096c0,-1.182 -0.961,-2.138 -2.138,-2.138c-0.661,0 -1.2,-0.54 -1.2,-1.201c0,-0.61 0.459,-1.121 1.055,-1.191Z" style="fill:#fff;fill-rule:nonzero;stroke:#fff;stroke-width:0.04px;"/></g></svg>