<?xml version="1.0" encoding="UTF-8" standalone="no"?><!DOCTYPE svg PUBLIC "-//W3C//DTD SVG 1.1//EN" "http://www.w3.org/Graphics/SVG/1.1/DTD/svg11.dtd"><svg width="100%" height="100%" viewBox="0 0 23 23" version="1.1" xmlns="http://www.w3.org/2000/svg" xmlns:xlink="http://www.w3.org/1999/xlink" xml:space="preserve" xmlns:serif="http://www.serif.com/" style="fill-rule:evenodd;clip-rule:evenodd;stroke-linejoin:round;stroke-miterlimit:1.41421;"><g><path d="M18.914,3.024c-0.018,-0.021 -0.037,-0.039 -0.059,-0.056c-2.402,-2.218 -5.654,-3.274 -8.901,-2.891l-0.004,0c-3.932,0.454 -7.335,2.942 -8.96,6.551c-1.624,3.609 -1.231,7.806 1.036,11.05c0.01,0.016 0.02,0.03 0.031,0.044c3.128,4.456 9.003,6.026 13.937,3.724c0.011,-0.006 0.024,-0.009 0.035,-0.016c3.382,-1.584 5.757,-4.746 6.335,-8.436c0.579,-3.69 -0.714,-7.427 -3.45,-9.97Zm-1.041,0.085c-2.569,0.925 -8.227,3.603 -8.484,9.244c-0.925,-0.021 -1.792,-0.055 -2.601,-0.104c-0.013,-0.334 -0.022,-0.671 -0.022,-1.012c0,-4.797 1.393,-9.062 3.394,-10.432c0.363,-0.037 0.727,-0.055 1.091,-0.055c2.413,-0.002 4.753,0.831 6.622,2.359Zm-9.063,-2.07c-1.704,1.988 -2.794,5.838 -2.794,10.2c0,0.325 0.006,0.645 0.018,0.962c-0.854,-0.061 -1.629,-0.135 -2.313,-0.219c-0.109,-1.953 -0.744,-3.84 -1.837,-5.463c1.395,-2.753 3.927,-4.756 6.926,-5.48Zm-8.014,11.155c0.723,0.208 1.46,0.36 2.205,0.454l0,0.101c0.008,1.344 -0.242,2.676 -0.736,3.926c-0.825,-1.362 -1.327,-2.895 -1.469,-4.481Zm0.718,-4.867c0.84,1.38 1.337,2.942 1.45,4.553c-0.751,-0.09 -1.49,-0.255 -2.208,-0.492c-0.001,-0.046 -0.004,-0.092 -0.004,-0.139c-0.001,-1.344 0.258,-2.676 0.762,-3.922Zm1.248,10.09c0.661,-1.467 0.999,-3.059 0.989,-4.668l0,-0.004c0.706,0.084 1.486,0.155 2.325,0.212c0.245,3.667 1.267,6.795 2.757,8.507c-2.441,-0.581 -4.595,-2.017 -6.071,-4.047Zm7.437,4.278c-1.773,-1.173 -3.073,-4.602 -3.369,-8.69c0.812,0.045 1.67,0.079 2.562,0.099c0.161,3.981 2.953,6.487 5.571,7.964c-1.186,0.451 -2.444,0.681 -3.712,0.68c-0.355,0 -0.706,-0.018 -1.052,-0.053Zm5.64,-1.005c-2.564,-1.332 -5.516,-3.702 -5.696,-7.574c0.365,0.005 0.734,0.008 1.108,0.008c4.636,0 8.648,-0.366 10.454,-0.93c-0.335,3.663 -2.559,6.885 -5.866,8.496Zm5.908,-9.302c-1.307,0.503 -5.187,0.986 -10.496,0.986c-0.38,0 -0.751,-0.002 -1.114,-0.008c0.114,-2.085 1.275,-6.349 8.379,-8.685c2.067,1.975 3.235,4.71 3.234,7.568c0,0.047 -0.003,0.093 -0.003,0.139Z" style="fill:#fff;fill-rule:nonzero;"/><path d="M17.179,5.252c-1.026,0.361 -1.404,1.853 -0.862,3.399c0.464,1.32 1.429,2.19 2.341,2.19c0.155,0 0.31,-0.026 0.457,-0.077c1.026,-0.361 1.405,-1.854 0.863,-3.399c-0.542,-1.545 -1.77,-2.474 -2.799,-2.113Zm2.091,2.362c0.383,1.091 0.195,2.232 -0.403,2.443c-0.598,0.21 -1.459,-0.563 -1.842,-1.654c-0.384,-1.091 -0.195,-2.233 0.403,-2.443c0.067,-0.023 0.137,-0.035 0.208,-0.034c0.575,-0.001 1.293,0.717 1.634,1.686l0,0.002Z" style="fill:#fff;fill-rule:nonzero;"/><path d="M18.874,14.275c-0.621,-0.3 -1.411,0.1 -1.8,0.906c-0.389,0.807 -0.203,1.672 0.418,1.97c0.137,0.065 0.287,0.099 0.439,0.098c0.607,-0.052 1.133,-0.441 1.361,-1.005c0.387,-0.806 0.204,-1.671 -0.418,-1.969Zm-0.258,1.645c-0.209,0.437 -0.593,0.653 -0.798,0.555c-0.205,-0.098 -0.275,-0.533 -0.066,-0.969c0.113,-0.3 0.374,-0.519 0.688,-0.578c0.038,-0.001 0.075,0.007 0.11,0.023c0.204,0.098 0.275,0.533 0.066,0.969Z" style="fill:#fff;fill-rule:nonzero;"/></g></svg>