<?xml version="1.0" encoding="UTF-8" standalone="no"?><!DOCTYPE svg PUBLIC "-//W3C//DTD SVG 1.1//EN" "http://www.w3.org/Graphics/SVG/1.1/DTD/svg11.dtd"><svg width="100%" height="100%" viewBox="0 0 7 8" version="1.1" xmlns="http://www.w3.org/2000/svg" xmlns:xlink="http://www.w3.org/1999/xlink" xml:space="preserve" xmlns:serif="http://www.serif.com/" style="fill-rule:evenodd;clip-rule:evenodd;stroke-linejoin:round;stroke-miterlimit:1.41421;"><g><path d="M6.754,3.243l-3.064,-3.064c-0.119,-0.119 -0.262,-0.179 -0.428,-0.179c-0.164,0 -0.305,0.06 -0.424,0.179l-0.353,0.353c-0.119,0.113 -0.179,0.254 -0.179,0.423c0,0.17 0.06,0.311 0.179,0.424l1.379,1.384l-3.313,0c-0.164,0 -0.296,0.058 -0.398,0.176c-0.102,0.118 -0.153,0.26 -0.153,0.426l0,0.602c0,0.167 0.051,0.309 0.153,0.426c0.102,0.118 0.234,0.177 0.398,0.177l3.313,0l-1.379,1.379c-0.119,0.119 -0.179,0.262 -0.179,0.428c0,0.166 0.06,0.309 0.179,0.428l0.353,0.353c0.122,0.116 0.263,0.174 0.423,0.174c0.164,0 0.306,-0.058 0.429,-0.174l3.064,-3.064c0.116,-0.116 0.174,-0.258 0.174,-0.428c0,-0.172 -0.058,-0.314 -0.174,-0.423Z" style="fill:#d01a2d;fill-rule:nonzero;"/></g></svg>