<?xml version="1.0" encoding="UTF-8" standalone="no"?><!DOCTYPE svg PUBLIC "-//W3C//DTD SVG 1.1//EN" "http://www.w3.org/Graphics/SVG/1.1/DTD/svg11.dtd"><svg width="100%" height="100%" viewBox="0 0 23 20" version="1.1" xmlns="http://www.w3.org/2000/svg" xmlns:xlink="http://www.w3.org/1999/xlink" xml:space="preserve" xmlns:serif="http://www.serif.com/" style="fill-rule:evenodd;clip-rule:evenodd;stroke-linejoin:round;stroke-miterlimit:1.41421;"><g><g><path d="M19.718,3.103l-0.189,-0.118c-0.167,-0.104 -0.386,-0.053 -0.49,0.114c-0.104,0.167 -0.053,0.387 0.114,0.491l0.189,0.117c0.058,0.037 0.123,0.054 0.187,0.054c0.119,0 0.236,-0.059 0.303,-0.168c0.104,-0.167 0.053,-0.386 -0.114,-0.49Z" style="fill:#fff;fill-rule:nonzero;"/><path d="M22.489,4.232c-0.024,-0.098 -0.09,-0.181 -0.179,-0.229l-1.625,-0.856l-0.255,-1.19c-0.018,-0.087 -0.069,-0.164 -0.141,-0.215l-0.643,-0.46l0.26,-0.818c0.04,-0.128 0.006,-0.267 -0.09,-0.361c-0.095,-0.095 -0.235,-0.127 -0.362,-0.085c-0.019,0.007 -0.471,0.159 -0.94,0.452c-0.133,0.083 -0.254,0.17 -0.365,0.26l-0.289,0.011c-1.198,0.045 -2.313,0.609 -3.059,1.548l-2.58,3.248l-3.087,0.524c-2.159,0.367 -3.366,-0.305 -3.876,-0.714c0.223,-0.126 0.473,-0.193 0.729,-0.193c0.48,0 0.932,0.234 1.208,0.626c0.058,0.082 0.148,0.136 0.248,0.148c0.099,0.013 0.2,-0.018 0.276,-0.084l0.796,-0.687c0.45,-0.389 0.708,-0.953 0.708,-1.548c0,-0.52 -0.196,-1.016 -0.552,-1.396c-0.744,-0.795 -1.796,-1.251 -2.885,-1.251c-0.805,0 -1.58,0.242 -2.243,0.7c-1.557,1.074 -2.134,3.111 -1.372,4.842l0.137,0.311l-0.7,0.919c-1.24,1.629 -1.657,3.699 -1.142,5.68l0.282,1.09l-0.467,0.541c-0.201,0.234 -0.3,0.532 -0.278,0.84l0.175,2.457c0.047,0.646 0.59,1.151 1.237,1.151l1.227,0c0.153,0 0.299,-0.073 0.39,-0.197c0.09,-0.123 0.117,-0.284 0.072,-0.43c-0.092,-0.297 -0.274,-0.552 -0.524,-0.737c-0.155,-0.114 -0.327,-0.194 -0.509,-0.24l-0.015,-0.99c-0.006,-0.396 0.188,-0.762 0.52,-0.979l1.545,-1.011c0.414,-0.272 0.768,-0.64 1.023,-1.064l0.371,-0.616c0.271,-0.449 0.746,-0.718 1.272,-0.718c0.289,0 0.571,0.085 0.814,0.245c0.74,0.487 1.633,0.707 2.516,0.618l2.855,-0.287l0.049,3.045c0.004,0.252 0.065,0.505 0.178,0.731l1.01,2.019c0.188,0.377 0.567,0.611 0.989,0.611l1.321,0c0.217,0 0.419,-0.117 0.527,-0.305c0.108,-0.189 0.106,-0.422 -0.003,-0.61c-0.217,-0.369 -0.584,-0.624 -0.996,-0.704l-0.211,-0.797l0.402,-4.327l0.918,-0.995c0.652,-0.705 1.114,-1.572 1.337,-2.506l0.775,-3.241l1.381,-0.031c0.512,-0.011 0.988,-0.271 1.274,-0.695l0.516,-0.765c0.057,-0.083 0.075,-0.187 0.05,-0.285Zm-18.541,-1.984c0.543,-0.376 1.179,-0.574 1.838,-0.574c0.893,0 1.755,0.374 2.365,1.025c0.232,0.248 0.36,0.571 0.36,0.91c0,0.388 -0.168,0.756 -0.461,1.009l-0.526,0.453c-0.406,-0.399 -0.957,-0.629 -1.537,-0.629c-0.877,0 -2.44,0.955 -3.175,1.748c-0.607,-1.413 -0.132,-3.067 1.136,-3.942Zm17.385,2.635c-0.157,0.233 -0.419,0.376 -0.7,0.382l-1.48,0.033c-0.429,0.01 -0.846,-0.1 -1.213,-0.317c-0.247,-0.146 -0.463,-0.347 -0.626,-0.581c-0.113,-0.162 -0.335,-0.202 -0.496,-0.089c-0.161,0.112 -0.201,0.334 -0.089,0.495c0.221,0.318 0.514,0.591 0.848,0.788c0.301,0.179 0.63,0.301 0.971,0.365l-0.747,3.125c-0.196,0.815 -0.599,1.572 -1.168,2.188l-1,1.084c-0.053,0.057 -0.086,0.131 -0.093,0.209l-0.419,4.51c-0.004,0.041 -0.001,0.083 0.01,0.124l0.29,1.095c0.041,0.156 0.183,0.265 0.344,0.265c0.204,0 0.398,0.082 0.54,0.222l-1.107,0c-0.15,0 -0.285,-0.083 -0.352,-0.218l-1.01,-2.018c-0.065,-0.131 -0.101,-0.278 -0.103,-0.425l-0.092,-5.751c-0.003,-0.197 -0.167,-0.353 -0.362,-0.35c-0.197,0.003 -0.353,0.165 -0.35,0.361l0.032,1.993l-2.916,0.293c-0.719,0.072 -1.448,-0.107 -2.053,-0.505c-0.36,-0.237 -0.776,-0.362 -1.205,-0.362c-0.175,0 -0.346,0.021 -0.511,0.06c0.515,-1.18 0.414,-2.54 -0.294,-3.642c-0.107,-0.165 -0.327,-0.213 -0.492,-0.107c-0.166,0.106 -0.214,0.327 -0.107,0.492c0.643,1 0.673,2.262 0.08,3.292l-0.557,0.966c-0.001,0.001 -0.001,0.002 -0.001,0.002l-0.371,0.616c-0.201,0.333 -0.479,0.622 -0.804,0.835l-1.544,1.012c-0.537,0.351 -0.852,0.944 -0.842,1.585l0.02,1.298c0.003,0.195 0.161,0.351 0.356,0.351c0.158,0 0.31,0.049 0.437,0.143c0.033,0.024 0.063,0.051 0.091,0.079l-0.833,0c-0.275,0 -0.506,-0.215 -0.526,-0.49l-0.176,-2.456c-0.008,-0.119 0.03,-0.235 0.108,-0.325l0.589,-0.683c0.076,-0.088 0.104,-0.208 0.075,-0.322l-0.33,-1.269c-0.459,-1.769 -0.087,-3.617 1.02,-5.071l0.827,-1.086c0.001,-0.001 0.002,-0.003 0.003,-0.005c0.001,-0.001 0.001,-0.001 0.002,-0.002c0.553,-0.762 1.251,-1.183 1.593,-1.357c0.407,0.388 1.458,1.164 3.341,1.164c0.4,0 0.837,-0.035 1.313,-0.116l3.221,-0.547c0.086,-0.015 0.164,-0.061 0.219,-0.13l2.665,-3.354c0.543,-0.683 1.322,-1.126 2.176,-1.248c-0.068,0.15 -0.112,0.304 -0.127,0.461c-0.019,0.195 0.124,0.37 0.32,0.389c0.196,0.019 0.37,-0.124 0.389,-0.32c0.04,-0.409 0.454,-0.756 0.866,-0.997l-0.329,1.033c-0.059,0.188 0.045,0.388 0.232,0.447c0.036,0.012 0.072,0.017 0.108,0.017c0.151,0 0.291,-0.097 0.339,-0.248l0.086,-0.271l0.344,0.246l0.01,0.05c-0.147,0.021 -0.272,0.135 -0.299,0.29c-0.035,0.193 0.094,0.378 0.288,0.413l0.168,0.03l0.094,0.435c0.022,0.103 0.088,0.191 0.182,0.24l1.421,0.749l-0.294,0.435Z" style="fill:#fff;fill-rule:nonzero;"/></g></g></svg>