<?xml version="1.0" encoding="UTF-8" standalone="no"?><!DOCTYPE svg PUBLIC "-//W3C//DTD SVG 1.1//EN" "http://www.w3.org/Graphics/SVG/1.1/DTD/svg11.dtd"><svg width="100%" height="100%" viewBox="0 0 13 13" version="1.1" xmlns="http://www.w3.org/2000/svg" xmlns:xlink="http://www.w3.org/1999/xlink" xml:space="preserve" xmlns:serif="http://www.serif.com/" style="fill-rule:evenodd;clip-rule:evenodd;stroke-linejoin:round;stroke-miterlimit:1.41421;"><g><g><path d="M4.554,7.112c0,-0.162 -0.131,-0.292 -0.293,-0.292l-1.021,0c-0.161,0 -0.292,0.13 -0.292,0.292l0,1.021c0,0.162 0.131,0.292 0.292,0.292l1.021,0c0.162,0 0.293,-0.13 0.293,-0.292l0,-1.021Z" style="fill:#f31212;fill-rule:nonzero;"/><path d="M7.106,7.112c0,-0.162 -0.131,-0.292 -0.293,-0.292l-1.021,0c-0.161,0 -0.292,0.13 -0.292,0.292l0,1.021c0,0.162 0.131,0.292 0.292,0.292l1.021,0c0.162,0 0.293,-0.13 0.293,-0.292l0,-1.021Z" style="fill:#f31212;fill-rule:nonzero;"/><path d="M9.658,7.112c0,-0.162 -0.131,-0.292 -0.293,-0.292l-1.021,0c-0.162,0 -0.293,0.13 -0.293,0.292l0,1.021c0,0.162 0.131,0.292 0.293,0.292l1.021,0c0.162,0 0.293,-0.13 0.293,-0.292l0,-1.021Z" style="fill:#f31212;fill-rule:nonzero;"/><path d="M4.554,9.664c0,-0.162 -0.131,-0.292 -0.293,-0.292l-1.021,0c-0.161,0 -0.292,0.13 -0.292,0.292l0,1.021c0,0.161 0.131,0.292 0.292,0.292l1.021,0c0.162,0 0.293,-0.131 0.293,-0.292l0,-1.021Z" style="fill:#f31212;fill-rule:nonzero;"/><path d="M7.106,9.664c0,-0.162 -0.131,-0.292 -0.293,-0.292l-1.021,0c-0.161,0 -0.292,0.13 -0.292,0.292l0,1.021c0,0.161 0.131,0.292 0.292,0.292l1.021,0c0.162,0 0.293,-0.131 0.293,-0.292l0,-1.021Z" style="fill:#f31212;fill-rule:nonzero;"/><path d="M9.658,9.664c0,-0.162 -0.131,-0.292 -0.293,-0.292l-1.021,0c-0.162,0 -0.293,0.13 -0.293,0.292l0,1.021c0,0.161 0.131,0.292 0.293,0.292l1.021,0c0.162,0 0.293,-0.131 0.293,-0.292l0,-1.021Z" style="fill:#f31212;fill-rule:nonzero;"/><path d="M11.483,1.435l0,1.56c0,0.705 -0.571,1.273 -1.276,1.273l-0.805,0c-0.705,0 -1.285,-0.568 -1.285,-1.273l0,-1.565l-3.629,0l0,1.565c0,0.705 -0.579,1.273 -1.284,1.273l-0.806,0c-0.704,0 -1.276,-0.568 -1.276,-1.273l0,-1.56c-0.616,0.019 -1.122,0.529 -1.122,1.155l0,9.139c0,0.638 0.517,1.162 1.155,1.162l10.295,0c0.637,0 1.155,-0.525 1.155,-1.162l0,-9.139c0,-0.626 -0.506,-1.136 -1.122,-1.155Zm-0.374,9.725c0,0.275 -0.223,0.499 -0.499,0.499l-8.636,0c-0.276,0 -0.5,-0.224 -0.5,-0.499l0,-4.721c0,-0.276 0.224,-0.499 0.5,-0.499l8.636,0c0.276,0 0.499,0.223 0.499,0.499l0,4.721Z" style="fill:#f31212;fill-rule:nonzero;"/><path d="M2.396,3.432l0.796,0c0.242,0 0.438,-0.196 0.438,-0.438l0,-2.556c0,-0.242 -0.196,-0.438 -0.438,-0.438l-0.796,0c-0.242,0 -0.438,0.196 -0.438,0.438l0,2.556c0,0.242 0.196,0.438 0.438,0.438Z" style="fill:#f31212;fill-rule:nonzero;"/><path d="M9.391,3.432l0.797,0c0.241,0 0.437,-0.196 0.437,-0.438l0,-2.556c0,-0.242 -0.196,-0.438 -0.437,-0.438l-0.797,0c-0.241,0 -0.437,0.196 -0.437,0.438l0,2.556c0,0.242 0.196,0.438 0.437,0.438Z" style="fill:#f31212;fill-rule:nonzero;"/></g></g></svg>