<?xml version="1.0" encoding="UTF-8" standalone="no"?><!DOCTYPE svg PUBLIC "-//W3C//DTD SVG 1.1//EN" "http://www.w3.org/Graphics/SVG/1.1/DTD/svg11.dtd"><svg width="100%" height="100%" viewBox="0 0 23 23" version="1.1" xmlns="http://www.w3.org/2000/svg" xmlns:xlink="http://www.w3.org/1999/xlink" xml:space="preserve" xmlns:serif="http://www.serif.com/" style="fill-rule:evenodd;clip-rule:evenodd;stroke-linejoin:round;stroke-miterlimit:1.41421;"><g><path d="M21.348,8.888l-1.579,-0.268c-0.164,-0.531 -0.376,-1.043 -0.634,-1.532l0.93,-1.302c0.395,-0.555 0.334,-1.311 -0.15,-1.791l-1.401,-1.4c-0.263,-0.264 -0.611,-0.409 -0.982,-0.409c-0.292,0 -0.569,0.089 -0.804,0.258l-1.307,0.931c-0.507,-0.268 -1.038,-0.489 -1.588,-0.654l-0.263,-1.56c-0.113,-0.672 -0.691,-1.161 -1.373,-1.161l-1.979,0c-0.681,0 -1.259,0.489 -1.372,1.161l-0.273,1.598c-0.526,0.165 -1.039,0.381 -1.527,0.644l-1.293,-0.931c-0.235,-0.169 -0.517,-0.258 -0.808,-0.258c-0.372,0 -0.724,0.146 -0.983,0.409l-1.405,1.4c-0.479,0.48 -0.545,1.237 -0.15,1.791l0.94,1.321c-0.259,0.493 -0.466,1.006 -0.626,1.537l-1.56,0.263c-0.672,0.113 -1.161,0.691 -1.161,1.373l0,1.978c0,0.682 0.489,1.26 1.161,1.373l1.598,0.272c0.165,0.527 0.381,1.039 0.644,1.528l-0.926,1.288c-0.395,0.555 -0.334,1.311 0.15,1.791l1.401,1.4c0.263,0.264 0.611,0.409 0.982,0.409c0.292,0 0.569,-0.089 0.804,-0.258l1.321,-0.94c0.475,0.249 0.973,0.451 1.485,0.611l0.263,1.579c0.113,0.672 0.691,1.161 1.373,1.161l1.983,0c0.682,0 1.26,-0.489 1.373,-1.161l0.268,-1.579c0.531,-0.165 1.043,-0.376 1.532,-0.635l1.302,0.931c0.235,0.169 0.517,0.258 0.808,0.258c0.372,0 0.72,-0.145 0.983,-0.409l1.4,-1.4c0.48,-0.48 0.546,-1.236 0.151,-1.791l-0.931,-1.307c0.259,-0.493 0.475,-1.005 0.635,-1.532l1.579,-0.263c0.672,-0.113 1.161,-0.691 1.161,-1.373l0,-1.978c0.009,-0.682 -0.479,-1.26 -1.152,-1.373Zm-0.108,3.351c0,0.062 -0.042,0.113 -0.103,0.123l-1.974,0.329c-0.249,0.042 -0.447,0.225 -0.508,0.465c-0.178,0.691 -0.451,1.354 -0.818,1.969c-0.127,0.217 -0.117,0.484 0.029,0.691l1.161,1.636c0.032,0.047 0.028,0.117 -0.015,0.16l-1.4,1.4c-0.033,0.033 -0.066,0.038 -0.09,0.038c-0.028,0 -0.051,-0.009 -0.07,-0.023l-1.631,-1.161c-0.202,-0.146 -0.475,-0.156 -0.691,-0.029c-0.616,0.367 -1.278,0.64 -1.969,0.818c-0.245,0.061 -0.428,0.263 -0.466,0.508l-0.333,1.974c-0.01,0.061 -0.061,0.103 -0.123,0.103l-1.978,0c-0.062,0 -0.113,-0.042 -0.123,-0.103l-0.329,-1.974c-0.042,-0.249 -0.225,-0.447 -0.465,-0.508c-0.672,-0.174 -1.321,-0.442 -1.927,-0.789c-0.099,-0.057 -0.212,-0.085 -0.32,-0.085c-0.127,0 -0.258,0.038 -0.366,0.117l-1.645,1.171c-0.024,0.014 -0.047,0.023 -0.071,0.023c-0.019,0 -0.056,-0.004 -0.089,-0.037l-1.401,-1.401c-0.042,-0.042 -0.047,-0.108 -0.014,-0.16l1.156,-1.621c0.146,-0.207 0.155,-0.48 0.029,-0.696c-0.367,-0.611 -0.649,-1.274 -0.828,-1.965c-0.066,-0.239 -0.263,-0.423 -0.507,-0.465l-1.989,-0.338c-0.061,-0.01 -0.103,-0.061 -0.103,-0.123l0,-1.978c0,-0.061 0.042,-0.113 0.103,-0.123l1.96,-0.329c0.25,-0.042 0.452,-0.225 0.513,-0.47c0.174,-0.691 0.442,-1.358 0.804,-1.974c0.126,-0.216 0.112,-0.484 -0.033,-0.686l-1.171,-1.645c-0.033,-0.047 -0.028,-0.118 0.014,-0.16l1.401,-1.401c0.033,-0.032 0.066,-0.037 0.089,-0.037c0.029,0 0.052,0.009 0.071,0.023l1.621,1.157c0.207,0.145 0.48,0.155 0.696,0.028c0.611,-0.367 1.274,-0.649 1.965,-0.827c0.239,-0.066 0.423,-0.264 0.465,-0.508l0.338,-1.988c0.01,-0.061 0.062,-0.104 0.123,-0.104l1.978,0c0.062,0 0.113,0.043 0.123,0.104l0.329,1.96c0.042,0.249 0.225,0.451 0.47,0.512c0.709,0.179 1.386,0.456 2.016,0.827c0.216,0.127 0.484,0.118 0.691,-0.028l1.622,-1.166c0.023,-0.014 0.047,-0.023 0.07,-0.023c0.019,0 0.057,0.005 0.089,0.038l1.401,1.4c0.042,0.043 0.047,0.108 0.014,0.16l-1.161,1.631c-0.145,0.202 -0.155,0.475 -0.028,0.691c0.367,0.616 0.639,1.278 0.818,1.969c0.061,0.245 0.263,0.428 0.508,0.466l1.974,0.333c0.061,0.01 0.103,0.061 0.103,0.123l0,1.978l-0.005,0Z" style="fill:#fff;fill-rule:nonzero;"/><path d="M11.252,6.392c-2.679,0 -4.855,2.177 -4.855,4.856c0,2.679 2.176,4.855 4.855,4.855c2.679,0 4.856,-2.176 4.856,-4.855c0,-2.679 -2.177,-4.856 -4.856,-4.856Zm0,8.442c-1.978,0 -3.586,-1.608 -3.586,-3.586c0,-1.979 1.608,-3.587 3.586,-3.587c1.979,0 3.587,1.608 3.587,3.587c0,1.978 -1.608,3.586 -3.587,3.586Z" style="fill:#fff;fill-rule:nonzero;"/></g></svg>