<?xml version="1.0" encoding="UTF-8" standalone="no"?><!DOCTYPE svg PUBLIC "-//W3C//DTD SVG 1.1//EN" "http://www.w3.org/Graphics/SVG/1.1/DTD/svg11.dtd"><svg width="100%" height="100%" viewBox="0 0 13 13" version="1.1" xmlns="http://www.w3.org/2000/svg" xmlns:xlink="http://www.w3.org/1999/xlink" xml:space="preserve" xmlns:serif="http://www.serif.com/" style="fill-rule:evenodd;clip-rule:evenodd;stroke-linejoin:round;stroke-miterlimit:1.41421;"><g><path d="M6.294,0c-0.687,0 -1.368,0.113 -2.023,0.336c-0.647,0.22 -1.248,0.539 -1.787,0.95c-2.158,1.642 -3.021,4.472 -2.147,7.04c0.542,1.593 1.671,2.88 3.181,3.622c0.876,0.433 1.81,0.652 2.776,0.652c0,0 0,0 0,0c0.689,0 1.373,-0.114 2.034,-0.339c0.647,-0.22 1.248,-0.54 1.787,-0.95c2.158,-1.642 3.021,-4.472 2.147,-7.04c-0.869,-2.555 -3.268,-4.271 -5.968,-4.271Zm0.609,1.389c0.091,-0.069 0.184,-0.137 0.277,-0.203l0.072,-0.051l0.087,0.017c0.424,0.086 0.839,0.225 1.231,0.413l0.287,0.138l-0.243,0.204c-2.03,1.707 -2.444,3.456 -2.51,4.346l-0.01,0.131l-0.123,0.046c-0.232,0.087 -0.483,0.131 -0.747,0.131c-0.293,0 -0.608,-0.055 -0.933,-0.164l-0.14,-0.046l0,-0.147c-0.005,-0.635 0.182,-2.859 2.752,-4.815Zm-5.446,2.876c0.357,-0.85 0.931,-1.593 1.66,-2.147c0.451,-0.343 0.953,-0.61 1.491,-0.793c0.16,-0.054 0.332,-0.104 0.512,-0.146l0.693,-0.163l-0.5,0.507c-1.47,1.49 -1.934,3.01 -2.065,4.024l-0.043,0.332l-0.276,-0.189c-0.597,-0.409 -1.106,-0.879 -1.428,-1.201l-0.097,-0.097l0.053,-0.127Zm-0.188,3.534l-0.023,-0.079c-0.172,-0.612 -0.233,-1.241 -0.179,-1.872l0.034,-0.406l0.306,0.269c0.763,0.673 2.276,1.802 3.824,1.802c0.438,0 0.858,-0.09 1.246,-0.269l0.097,-0.044l0.092,0.054c0.46,0.269 0.876,0.584 1.237,0.936l0.185,0.18l-0.218,0.14c-0.449,0.286 -1.213,0.632 -2.301,0.652c-0.033,0 -0.065,0.001 -0.098,0.001c-1.27,0 -2.66,-0.445 -4.132,-1.323l-0.07,-0.041Zm7.982,2.842c-0.394,0.268 -0.818,0.481 -1.26,0.631c-0.551,0.187 -1.122,0.282 -1.697,0.282c-0.804,0 -1.583,-0.182 -2.315,-0.542c-0.571,-0.282 -1.081,-0.659 -1.514,-1.121l-0.612,-0.653l0.835,0.321c0.966,0.372 1.903,0.56 2.786,0.56c1.425,0 2.432,-0.485 3.026,-0.892l0.177,-0.12l0.113,0.181c0.221,0.355 0.403,0.73 0.539,1.115l0.053,0.149l-0.131,0.089Zm1.923,-2.384c-0.198,0.497 -0.471,0.958 -0.81,1.373l-0.21,0.256l-0.136,-0.302c-0.408,-0.907 -1.236,-2.188 -2.865,-3.143l-0.112,-0.066l0.012,-0.13c0.033,-0.358 0.147,-0.928 0.505,-1.609l0.087,-0.166l0.173,0.071c0.821,0.34 2.348,1.255 3.354,3.558l0.034,0.079l-0.032,0.079Zm-0.005,-2.112c-0.922,-1.321 -1.994,-2.014 -2.731,-2.362l-0.246,-0.116l0.18,-0.205c0.329,-0.376 0.723,-0.74 1.17,-1.084l0.135,-0.103l0.127,0.113c0.671,0.6 1.179,1.368 1.469,2.219c0.152,0.448 0.243,0.922 0.269,1.41l0.039,0.718l-0.412,-0.59Z" style="fill:#f31212;fill-rule:nonzero;"/></g></svg>