<?xml version="1.0" encoding="UTF-8" standalone="no"?><!DOCTYPE svg PUBLIC "-//W3C//DTD SVG 1.1//EN" "http://www.w3.org/Graphics/SVG/1.1/DTD/svg11.dtd"><svg width="100%" height="100%" viewBox="0 0 7 12" version="1.1" xmlns="http://www.w3.org/2000/svg" xmlns:xlink="http://www.w3.org/1999/xlink" xml:space="preserve" xmlns:serif="http://www.serif.com/" style="fill-rule:evenodd;clip-rule:evenodd;stroke-linejoin:round;stroke-miterlimit:1.41421;"><path d="M5.587,0c-0.345,0 -0.625,0.28 -0.625,0.625l0,0.682l-3.712,0l0,-0.682c0,-0.345 -0.28,-0.625 -0.625,-0.625c-0.345,0 -0.625,0.28 -0.625,0.625l0,10c0,0.345 0.28,0.625 0.625,0.625c0.345,0 0.625,-0.28 0.625,-0.625l0,-0.606l3.712,0l0,0.606c0,0.345 0.28,0.625 0.625,0.625c0.345,0 0.625,-0.28 0.625,-0.625l0,-10c0,-0.345 -0.28,-0.625 -0.625,-0.625Zm-4.337,5.057l3.712,0l0,1.212l-3.712,0l0,-1.212Zm3.712,-2.5l0,1.25l-3.712,0l0,-1.25l3.712,0Zm-3.712,6.212l0,-1.25l3.712,0l0,1.25l-3.712,0Z" style="fill:#bfbfbf;fill-rule:nonzero;"/></svg>