<?xml version="1.0" encoding="UTF-8" standalone="no"?><!DOCTYPE svg PUBLIC "-//W3C//DTD SVG 1.1//EN" "http://www.w3.org/Graphics/SVG/1.1/DTD/svg11.dtd"><svg width="100%" height="100%" viewBox="0 0 15 12" version="1.1" xmlns="http://www.w3.org/2000/svg" xmlns:xlink="http://www.w3.org/1999/xlink" xml:space="preserve" xmlns:serif="http://www.serif.com/" style="fill-rule:evenodd;clip-rule:evenodd;stroke-linejoin:round;stroke-miterlimit:1.41421;"><g><g><path d="M13.901,0.349c-0.233,-0.233 -0.512,-0.349 -0.839,-0.349l-11.875,0c-0.326,0 -0.606,0.116 -0.838,0.349c-0.233,0.232 -0.349,0.512 -0.349,0.838l0,9.025c0,0.327 0.116,0.606 0.349,0.839c0.232,0.233 0.512,0.349 0.838,0.349l11.876,0c0.326,0 0.606,-0.116 0.838,-0.349c0.233,-0.233 0.349,-0.512 0.349,-0.839l0,-9.025c0,-0.326 -0.116,-0.606 -0.349,-0.838Zm-0.601,9.863c0,0.065 -0.024,0.12 -0.071,0.167c-0.047,0.047 -0.102,0.071 -0.167,0.071l-11.875,0c-0.064,0 -0.119,-0.024 -0.166,-0.071c-0.047,-0.047 -0.071,-0.102 -0.071,-0.167l0,-9.025c0,-0.064 0.023,-0.119 0.071,-0.167c0.047,-0.046 0.102,-0.07 0.166,-0.07l11.876,0c0.064,0 0.119,0.023 0.166,0.07c0.047,0.048 0.071,0.103 0.071,0.167l0,9.025Z" style="fill-rule:nonzero;"/><rect x="1.9" y="6.65" width="1.9" height="2.85"/><rect x="4.75" y="2.85" width="1.9" height="6.65"/><rect x="7.6" y="4.75" width="1.9" height="4.75"/><rect x="10.45" y="1.9" width="1.9" height="7.6"/></g></g></svg>