<?xml version="1.0" encoding="UTF-8" standalone="no"?><!DOCTYPE svg PUBLIC "-//W3C//DTD SVG 1.1//EN" "http://www.w3.org/Graphics/SVG/1.1/DTD/svg11.dtd"><svg width="100%" height="100%" viewBox="0 0 23 23" version="1.1" xmlns="http://www.w3.org/2000/svg" xmlns:xlink="http://www.w3.org/1999/xlink" xml:space="preserve" xmlns:serif="http://www.serif.com/" style="fill-rule:evenodd;clip-rule:evenodd;stroke-linejoin:round;stroke-miterlimit:1.41421;"><g><path d="M15.095,0.052l-0.009,0c-0.402,0.038 -0.812,0.092 -1.231,0.169c-6.892,1.354 -12.28,6.743 -13.634,13.635c-0.075,0.419 -0.131,0.829 -0.169,1.23l0,0.01c-0.23,2.513 0.305,4.648 1.505,5.848c1.018,1.019 2.708,1.558 4.732,1.558c0.79,-0.003 1.579,-0.078 2.356,-0.223c3.373,-0.651 6.473,-2.302 8.894,-4.741c2.438,-2.421 4.09,-5.52 4.74,-8.894c0.075,-0.418 0.132,-0.828 0.169,-1.229c0,-0.003 0,-0.007 0,-0.01c0.23,-2.513 -0.305,-4.648 -1.505,-5.849c-1.201,-1.2 -3.334,-1.734 -5.848,-1.504Zm1.05,0.693c1.68,0 3.09,0.394 3.983,1.098l-1.545,1.545l-2.637,-2.638c0.067,0 0.134,-0.005 0.199,-0.005l0,0Zm-1.2,0.064l3.109,3.109l-1.041,1.041l-3.842,-3.841c0.583,-0.142 1.175,-0.245 1.772,-0.309l0.002,0Zm6.439,8.522l-3.842,-3.842l1.041,-1.041l3.108,3.108c-0.063,0.598 -0.165,1.191 -0.307,1.775Zm-15.892,-3.839c1.906,-1.923 4.256,-3.348 6.843,-4.149l4.146,4.146l-1.041,1.041l-0.258,-0.258c-1.015,-1.013 -2.659,-1.013 -3.674,0l-5.237,5.237c-1.013,1.015 -1.013,2.659 0,3.673l0.258,0.259l-1.04,1.041l-4.147,-4.146c0.802,-2.587 2.227,-4.937 4.15,-6.844Zm10.207,2.358c0.72,0.721 0.72,1.89 0,2.612l-5.237,5.238c-0.721,0.72 -1.89,0.72 -2.612,0l-0.258,-0.259l0.517,-0.517l0.782,0.782c0.095,0.098 0.234,0.137 0.365,0.103c0.131,-0.035 0.234,-0.137 0.268,-0.268c0.034,-0.131 -0.005,-0.271 -0.102,-0.365l-0.784,-0.782l0.517,-0.518l0.782,0.783c0.148,0.142 0.382,0.14 0.526,-0.005c0.145,-0.145 0.147,-0.379 0.005,-0.526l-0.783,-0.782l0.518,-0.517l0.782,0.782c0.147,0.142 0.381,0.14 0.526,-0.005c0.144,-0.144 0.146,-0.378 0.004,-0.525l-0.782,-0.783l0.517,-0.517l0.782,0.782c0.148,0.143 0.382,0.141 0.526,-0.004c0.145,-0.145 0.147,-0.379 0.005,-0.526l-0.783,-0.782l0.517,-0.517l0.783,0.782c0.147,0.142 0.381,0.14 0.526,-0.005c0.144,-0.144 0.146,-0.378 0.004,-0.525l-0.782,-0.783l0.517,-0.517l0.782,0.782c0.148,0.143 0.381,0.141 0.526,-0.004c0.145,-0.145 0.147,-0.379 0.005,-0.526l-0.783,-0.782l0.518,-0.518l0.782,0.783c0.094,0.098 0.234,0.137 0.365,0.102c0.131,-0.034 0.234,-0.136 0.268,-0.268c0.034,-0.131 -0.005,-0.27 -0.102,-0.364l-0.783,-0.783l0.517,-0.517l0.259,0.259Zm-1.306,-0.272l-0.783,-0.783c-0.094,-0.097 -0.233,-0.136 -0.364,-0.102c-0.132,0.034 -0.234,0.137 -0.268,0.268c-0.035,0.131 0.004,0.27 0.102,0.365l0.783,0.782l-0.518,0.517l-0.782,-0.782c-0.147,-0.142 -0.381,-0.14 -0.526,0.005c-0.145,0.144 -0.147,0.378 -0.005,0.525l0.783,0.783l-0.518,0.517l-0.782,-0.782c-0.147,-0.142 -0.381,-0.14 -0.526,0.004c-0.144,0.145 -0.146,0.379 -0.004,0.526l0.782,0.782l-0.517,0.517l-0.782,-0.782c-0.147,-0.142 -0.381,-0.14 -0.526,0.005c-0.145,0.145 -0.147,0.378 -0.005,0.525l0.783,0.783l-0.517,0.517l-0.783,-0.782c-0.147,-0.142 -0.381,-0.14 -0.526,0.004c-0.144,0.145 -0.146,0.379 -0.004,0.526l0.782,0.782l-0.517,0.518l-0.782,-0.783c-0.147,-0.142 -0.381,-0.14 -0.526,0.005c-0.145,0.144 -0.147,0.378 -0.005,0.525l0.783,0.783l-0.518,0.517l-0.782,-0.782c-0.094,-0.098 -0.234,-0.137 -0.365,-0.103c-0.131,0.035 -0.233,0.137 -0.268,0.268c-0.034,0.131 0.005,0.271 0.103,0.365l0.782,0.783l-0.517,0.517l-0.259,-0.259c-0.72,-0.722 -0.72,-1.89 0,-2.612l5.237,-5.238c0.721,-0.72 1.89,-0.72 2.612,0l0.259,0.258l-0.516,0.518Zm-13.277,5.592l3.842,3.842l-1.041,1.041l-3.108,-3.108c0.063,-0.598 0.165,-1.191 0.307,-1.775Zm-0.367,2.775l2.639,2.639l-1.548,1.547c-0.731,-0.929 -1.124,-2.419 -1.091,-4.186Zm1.621,4.716l1.547,-1.547l2.639,2.638c-1.768,0.034 -3.257,-0.36 -4.186,-1.091Zm5.185,1.031l-3.107,-3.108l1.041,-1.041l3.842,3.842c-0.585,0.141 -1.178,0.244 -1.776,0.307Zm9.453,-4.683c-1.906,1.923 -4.257,3.348 -6.843,4.149l-4.146,-4.146l1.041,-1.04l0.259,0.258c1.014,1.013 2.658,1.013 3.673,0l5.237,-5.238c1.013,-1.014 1.013,-2.658 0,-3.673l-0.258,-0.259l1.041,-1.04l4.146,4.145c-0.802,2.587 -2.227,4.937 -4.15,6.844Zm4.743,-10.452l-2.639,-2.639l1.547,-1.547c0.732,0.929 1.126,2.418 1.092,4.186Z" style="fill:#fff;fill-rule:nonzero;"/></g></svg>