<?xml version="1.0" encoding="UTF-8" standalone="no"?><!DOCTYPE svg PUBLIC "-//W3C//DTD SVG 1.1//EN" "http://www.w3.org/Graphics/SVG/1.1/DTD/svg11.dtd"><svg width="100%" height="100%" viewBox="0 0 23 23" version="1.1" xmlns="http://www.w3.org/2000/svg" xmlns:xlink="http://www.w3.org/1999/xlink" xml:space="preserve" xmlns:serif="http://www.serif.com/" style="fill-rule:evenodd;clip-rule:evenodd;stroke-linejoin:round;stroke-miterlimit:1.41421;"><g><path d="M11.25,22.5c6.195,0 11.25,-5.056 11.25,-11.25c0,-6.195 -5.056,-11.25 -11.25,-11.25c-6.195,0 -11.25,5.056 -11.25,11.25c0,6.195 5.056,11.25 11.25,11.25Zm-7.221,-10.591c0.137,1.505 0.734,2.879 1.651,3.978l-1.9,1.901c-1.396,-1.594 -2.292,-3.636 -2.439,-5.879l2.688,0Zm11.858,-6.229c-1.099,-0.917 -2.473,-1.514 -3.978,-1.651l0,-2.688c2.243,0.147 4.285,1.043 5.879,2.439l-1.901,1.9Zm-5.296,-1.651c-1.505,0.137 -2.879,0.734 -3.978,1.651l-1.901,-1.9c1.594,-1.396 3.636,-2.292 5.879,-2.439l0,2.688Zm0.659,1.288c3.271,0 5.933,2.662 5.933,5.933c0,3.271 -2.662,5.933 -5.933,5.933c-3.271,0 -5.933,-2.662 -5.933,-5.933c0,-3.271 2.662,-5.933 5.933,-5.933Zm-4.637,11.503c1.099,0.916 2.473,1.514 3.978,1.651l0,2.688c-2.243,-0.147 -4.285,-1.043 -5.879,-2.439l1.901,-1.9Zm5.296,1.651c1.505,-0.137 2.879,-0.734 3.978,-1.651l1.901,1.9c-1.594,1.396 -3.636,2.292 -5.879,2.439l0,-2.688Zm6.811,-0.683l-1.9,-1.901c0.917,-1.099 1.514,-2.473 1.651,-3.978l2.688,0c-0.147,2.243 -1.043,4.285 -2.439,5.879Zm2.439,-7.197l-2.688,0c-0.137,-1.505 -0.734,-2.879 -1.651,-3.978l1.9,-1.901c1.396,1.594 2.292,3.636 2.439,5.879Zm-17.379,-5.879l1.9,1.901c-0.917,1.099 -1.514,2.473 -1.651,3.978l-2.688,0c0.147,-2.243 1.043,-4.285 2.439,-5.879Z" style="fill:#fff;fill-rule:nonzero;"/><path d="M11.25,13.228c-0.363,0 -0.659,-0.296 -0.659,-0.66l-1.319,0c0,0.86 0.551,1.592 1.319,1.865l0,1.431l1.318,0l0,-1.431c0.768,-0.273 1.319,-1.005 1.319,-1.865c0,-1.09 -0.888,-1.977 -1.978,-1.977c-0.363,0 -0.659,-0.296 -0.659,-0.659c0,-0.364 0.296,-0.66 0.659,-0.66c0.363,0 0.659,0.296 0.659,0.66l1.319,0c0,-0.86 -0.551,-1.592 -1.319,-1.865l0,-1.431l-1.318,0l0,1.431c-0.768,0.273 -1.319,1.005 -1.319,1.865c0,1.09 0.888,1.977 1.978,1.977c0.363,0 0.659,0.296 0.659,0.659c0,0.364 -0.296,0.66 -0.659,0.66Z" style="fill:#fff;fill-rule:nonzero;"/></g></svg>