<?xml version="1.0" encoding="UTF-8" standalone="no"?><!DOCTYPE svg PUBLIC "-//W3C//DTD SVG 1.1//EN" "http://www.w3.org/Graphics/SVG/1.1/DTD/svg11.dtd"><svg width="100%" height="100%" viewBox="0 0 16 15" version="1.1" xmlns="http://www.w3.org/2000/svg" xmlns:xlink="http://www.w3.org/1999/xlink" xml:space="preserve" xmlns:serif="http://www.serif.com/" style="fill-rule:evenodd;clip-rule:evenodd;stroke-linejoin:round;stroke-miterlimit:1.41421;"><g><g id="Layer_1_65_"><path d="M15.719,6.147c-0.055,-0.116 -0.172,-0.19 -0.301,-0.19l-0.981,0c-0.623,-3.384 -3.595,-5.957 -7.157,-5.957c-4.014,0 -7.28,3.266 -7.28,7.28c0,4.015 3.266,7.28 7.28,7.28c2.591,0 5.007,-1.394 6.306,-3.638c0.183,-0.316 0.075,-0.721 -0.242,-0.904c-0.317,-0.183 -0.721,-0.076 -0.904,0.241c-1.063,1.837 -3.04,2.978 -5.16,2.978c-3.284,0 -5.956,-2.672 -5.956,-5.956c0,-3.285 2.672,-5.957 5.956,-5.957c2.829,0 5.199,1.984 5.803,4.633l-0.973,0c-0.129,0 -0.245,0.074 -0.3,0.191c-0.055,0.116 -0.037,0.253 0.046,0.352l1.654,1.985c0.063,0.076 0.156,0.119 0.255,0.119c0.098,0 0.191,-0.044 0.254,-0.119l1.654,-1.985c0.083,-0.099 0.1,-0.236 0.046,-0.353Z" style="fill:#f31212;fill-rule:nonzero;"/><path d="M7.28,1.655c-0.365,0 -0.661,0.296 -0.661,0.662l0,4.015c-0.3,0.21 -0.497,0.556 -0.497,0.949c0,0.638 0.52,1.158 1.159,1.158c0.175,0 0.34,-0.042 0.488,-0.112l2.302,1.329c0.105,0.061 0.218,0.089 0.331,0.089c0.228,0 0.451,-0.119 0.574,-0.331c0.182,-0.316 0.074,-0.721 -0.243,-0.904l-2.305,-1.33c-0.03,-0.35 -0.212,-0.656 -0.485,-0.847l0,-4.016c-0.001,-0.366 -0.297,-0.662 -0.663,-0.662Zm0,6.122c-0.273,0 -0.496,-0.223 -0.496,-0.496c0,-0.274 0.223,-0.497 0.496,-0.497c0.274,0 0.497,0.223 0.497,0.497c0,0.273 -0.223,0.496 -0.497,0.496Z" style="fill:#f31212;fill-rule:nonzero;"/></g></g></svg>