<?xml version="1.0" encoding="UTF-8" standalone="no"?><!DOCTYPE svg PUBLIC "-//W3C//DTD SVG 1.1//EN" "http://www.w3.org/Graphics/SVG/1.1/DTD/svg11.dtd"><svg width="100%" height="100%" viewBox="0 0 14 14" version="1.1" xmlns="http://www.w3.org/2000/svg" xmlns:xlink="http://www.w3.org/1999/xlink" xml:space="preserve" xmlns:serif="http://www.serif.com/" style="fill-rule:evenodd;clip-rule:evenodd;stroke-linejoin:round;stroke-miterlimit:1.41421;"><g><path id="refresh" d="M11.475,2.025c-1.181,-1.266 -2.869,-2.025 -4.725,-2.025c-3.713,0 -6.75,3.037 -6.75,6.75c0,3.712 3.037,6.75 6.75,6.75c3.122,0 5.737,-2.194 6.497,-5.063l-1.772,0c-0.675,1.941 -2.531,3.375 -4.725,3.375c-2.784,0 -5.063,-2.278 -5.063,-5.062c0,-2.784 2.279,-5.063 5.063,-5.063c1.434,0 2.616,0.591 3.544,1.519l-2.7,2.7l5.906,0l0,-5.906l-2.025,2.025Z" style="fill:#fff;fill-rule:nonzero;"/></g></svg>