<?xml version="1.0" encoding="UTF-8" standalone="no"?><!DOCTYPE svg PUBLIC "-//W3C//DTD SVG 1.1//EN" "http://www.w3.org/Graphics/SVG/1.1/DTD/svg11.dtd"><svg width="100%" height="100%" viewBox="0 0 10 10" version="1.1" xmlns="http://www.w3.org/2000/svg" xmlns:xlink="http://www.w3.org/1999/xlink" xml:space="preserve" xmlns:serif="http://www.serif.com/" style="fill-rule:evenodd;clip-rule:evenodd;stroke-linejoin:round;stroke-miterlimit:1.41421;"><circle cx="4.855" cy="4.855" r="4.48" style="fill:#fff;"/><path d="M4.913,0.375l0.057,0.001l0.058,0.002l0.057,0.003l0.057,0.003l0.057,0.004l0.057,0.005l0.057,0.005l0.056,0.006l0.056,0.007l0.056,0.007l0.056,0.009l0.055,0.009l0.055,0.009l0.055,0.01l0.055,0.011l0.055,0.012l0.054,0.012l0.054,0.013l0.054,0.013l0.053,0.014l0.054,0.015l0.053,0.015l0.052,0.017l0.053,0.016l0.052,0.018l0.052,0.017l0.052,0.019l0.051,0.019l0.051,0.02l0.051,0.02l0.05,0.021l0.05,0.022l0.05,0.022l0.049,0.023l0.049,0.023l0.049,0.024l0.049,0.024l0.048,0.025l0.047,0.026l0.048,0.026l0.047,0.027l0.047,0.027l0.046,0.028l0.046,0.028l0.046,0.029l0.045,0.03l0.045,0.03l0.044,0.03l0.044,0.031l0.044,0.031l0.044,0.032l0.042,0.033l0.043,0.033l0.042,0.034l0.042,0.034l0.041,0.034l0.041,0.035l0.04,0.035l0.04,0.036l0.04,0.037l0.039,0.037l0.039,0.037l0.038,0.038l0.038,0.038l0.037,0.039l0.037,0.039l0.036,0.039l0.036,0.04l0.036,0.041l0.035,0.041l0.034,0.041l0.034,0.042l0.034,0.042l0.033,0.042l0.032,0.043l0.032,0.044l0.032,0.043l0.031,0.044l0.03,0.045l0.03,0.045l0.03,0.045l0.028,0.046l0.029,0.046l0.028,0.046l0.027,0.047l0.027,0.047l0.026,0.047l0.025,0.048l0.025,0.048l0.025,0.049l0.024,0.048l0.023,0.049l0.023,0.05l0.022,0.05l0.021,0.05l0.021,0.05l0.021,0.051l0.02,0.051l0.019,0.051l0.018,0.052l0.018,0.052l0.017,0.052l0.017,0.052l0.016,0.053l0.016,0.053l0.014,0.053l0.015,0.054l0.013,0.054l0.013,0.054l0.012,0.054l0.012,0.054l0.01,0.055l0.011,0.055l0.009,0.056l0.009,0.055l0.008,0.056l0.008,0.056l0.006,0.056l0.007,0.056l0.005,0.057l0.005,0.056l0.004,0.057l0.003,0.057l0.002,0.058l0.002,0.057l0.001,0.058l0.001,0.058l-0.001,0.058l-0.001,0.057l-0.002,0.058l-0.002,0.057l-0.003,0.057l-0.004,0.057l-0.005,0.057l-0.005,0.057l-0.007,0.056l-0.006,0.056l-0.008,0.056l-0.008,0.056l-0.009,0.055l-0.009,0.055l-0.011,0.055l-0.01,0.055l-0.012,0.055l-0.012,0.054l-0.013,0.054l-0.013,0.054l-0.015,0.053l-0.014,0.054l-0.016,0.053l-0.016,0.052l-0.017,0.053l-0.017,0.052l-0.018,0.052l-0.018,0.052l-0.019,0.051l-0.02,0.051l-0.021,0.051l-0.021,0.05l-0.021,0.05l-0.022,0.05l-0.023,0.049l-0.023,0.049l-0.024,0.049l-0.025,0.049l-0.025,0.048l-0.025,0.047l-0.026,0.048l-0.027,0.047l-0.027,0.047l-0.028,0.046l-0.029,0.046l-0.028,0.046l-0.03,0.045l-0.03,0.045l-0.03,0.044l-0.031,0.044l-0.032,0.044l-0.032,0.044l-0.032,0.042l-0.033,0.043l-0.034,0.042l-0.034,0.042l-0.034,0.041l-0.035,0.041l-0.036,0.04l-0.036,0.04l-0.036,0.04l-0.037,0.039l-0.037,0.039l-0.038,0.038l-0.038,0.038l-0.039,0.037l-0.039,0.037l-0.04,0.036l-0.04,0.036l-0.04,0.036l-0.041,0.035l-0.041,0.034l-0.042,0.034l-0.042,0.034l-0.043,0.033l-0.042,0.032l-0.044,0.032l-0.044,0.032l-0.044,0.031l-0.044,0.03l-0.045,0.03l-0.045,0.03l-0.046,0.028l-0.046,0.029l-0.046,0.028l-0.047,0.027l-0.047,0.027l-0.048,0.026l-0.047,0.025l-0.048,0.025l-0.049,0.025l-0.049,0.024l-0.049,0.023l-0.049,0.023l-0.05,0.022l-0.05,0.021l-0.05,0.021l-0.051,0.021l-0.051,0.02l-0.051,0.019l-0.052,0.018l-0.052,0.018l-0.052,0.017l-0.053,0.017l-0.052,0.016l-0.053,0.016l-0.054,0.014l-0.053,0.015l-0.054,0.013l-0.054,0.013l-0.054,0.012l-0.055,0.012l-0.055,0.01l-0.055,0.011l-0.055,0.009l-0.055,0.009l-0.056,0.008l-0.056,0.008l-0.056,0.006l-0.056,0.007l-0.057,0.005l-0.057,0.005l-0.057,0.004l-0.057,0.003l-0.057,0.002l-0.058,0.002l-0.057,0.001l-0.058,0.001l-0.058,-0.001l-0.058,-0.001l-0.057,-0.002l-0.058,-0.002l-0.057,-0.003l-0.057,-0.004l-0.056,-0.005l-0.057,-0.005l-0.056,-0.007l-0.056,-0.006l-0.056,-0.008l-0.056,-0.008l-0.055,-0.009l-0.056,-0.009l-0.055,-0.011l-0.055,-0.01l-0.054,-0.012l-0.054,-0.012l-0.054,-0.013l-0.054,-0.013l-0.054,-0.015l-0.053,-0.014l-0.053,-0.016l-0.053,-0.016l-0.052,-0.017l-0.052,-0.017l-0.052,-0.018l-0.052,-0.018l-0.051,-0.019l-0.051,-0.02l-0.051,-0.021l-0.05,-0.021l-0.05,-0.021l-0.05,-0.022l-0.05,-0.023l-0.049,-0.023l-0.048,-0.024l-0.049,-0.025l-0.048,-0.025l-0.048,-0.025l-0.047,-0.026l-0.047,-0.027l-0.047,-0.027l-0.046,-0.028l-0.046,-0.029l-0.046,-0.028l-0.045,-0.03l-0.045,-0.03l-0.045,-0.03l-0.044,-0.031l-0.043,-0.032l-0.044,-0.032l-0.043,-0.032l-0.042,-0.033l-0.042,-0.034l-0.042,-0.034l-0.041,-0.034l-0.041,-0.035l-0.041,-0.036l-0.04,-0.036l-0.039,-0.036l-0.039,-0.037l-0.039,-0.037l-0.038,-0.038l-0.038,-0.038l-0.037,-0.039l-0.037,-0.039l-0.037,-0.04l-0.036,-0.04l-0.035,-0.04l-0.035,-0.041l-0.034,-0.041l-0.034,-0.042l-0.034,-0.042l-0.033,-0.043l-0.033,-0.042l-0.032,-0.044l-0.031,-0.044l-0.031,-0.044l-0.03,-0.044l-0.03,-0.045l-0.03,-0.045l-0.029,-0.046l-0.028,-0.046l-0.028,-0.046l-0.027,-0.047l-0.027,-0.047l-0.026,-0.048l-0.026,-0.047l-0.025,-0.048l-0.024,-0.049l-0.024,-0.049l-0.023,-0.049l-0.023,-0.049l-0.022,-0.05l-0.022,-0.05l-0.021,-0.05l-0.02,-0.051l-0.02,-0.051l-0.019,-0.051l-0.019,-0.052l-0.017,-0.052l-0.018,-0.052l-0.016,-0.053l-0.017,-0.052l-0.015,-0.053l-0.015,-0.054l-0.014,-0.053l-0.013,-0.054l-0.013,-0.054l-0.012,-0.054l-0.012,-0.055l-0.011,-0.055l-0.01,-0.055l-0.009,-0.055l-0.009,-0.055l-0.009,-0.056l-0.007,-0.056l-0.007,-0.056l-0.006,-0.056l-0.005,-0.057l-0.005,-0.057l-0.004,-0.057l-0.003,-0.057l-0.003,-0.057l-0.002,-0.058l-0.001,-0.057l0,-0.058l0,-0.058l0.001,-0.058l0.002,-0.057l0.003,-0.058l0.003,-0.057l0.004,-0.057l0.005,-0.056l0.005,-0.057l0.006,-0.056l0.007,-0.056l0.007,-0.056l0.009,-0.056l0.009,-0.055l0.009,-0.056l0.01,-0.055l0.011,-0.055l0.012,-0.054l0.012,-0.054l0.013,-0.054l0.013,-0.054l0.014,-0.054l0.015,-0.053l0.015,-0.053l0.017,-0.053l0.016,-0.052l0.018,-0.052l0.017,-0.052l0.019,-0.052l0.019,-0.051l0.02,-0.051l0.02,-0.051l0.021,-0.05l0.022,-0.05l0.022,-0.05l0.023,-0.05l0.023,-0.049l0.024,-0.048l0.024,-0.049l0.025,-0.048l0.026,-0.048l0.026,-0.047l0.027,-0.047l0.027,-0.047l0.028,-0.046l0.028,-0.046l0.029,-0.046l0.03,-0.045l0.03,-0.045l0.03,-0.045l0.031,-0.044l0.031,-0.043l0.032,-0.044l0.033,-0.043l0.033,-0.042l0.034,-0.042l0.034,-0.042l0.034,-0.041l0.035,-0.041l0.035,-0.041l0.036,-0.04l0.037,-0.039l0.037,-0.039l0.037,-0.039l0.038,-0.038l0.038,-0.038l0.039,-0.037l0.039,-0.037l0.039,-0.037l0.04,-0.036l0.041,-0.035l0.041,-0.035l0.041,-0.034l0.042,-0.034l0.042,-0.034l0.042,-0.033l0.043,-0.033l0.044,-0.032l0.043,-0.031l0.044,-0.031l0.045,-0.03l0.045,-0.03l0.045,-0.03l0.046,-0.029l0.046,-0.028l0.046,-0.028l0.047,-0.027l0.047,-0.027l0.047,-0.026l0.048,-0.026l0.048,-0.025l0.049,-0.024l0.048,-0.024l0.049,-0.023l0.05,-0.023l0.05,-0.022l0.05,-0.022l0.05,-0.021l0.051,-0.02l0.051,-0.02l0.051,-0.019l0.052,-0.019l0.052,-0.017l0.052,-0.018l0.052,-0.016l0.053,-0.017l0.053,-0.015l0.053,-0.015l0.054,-0.014l0.054,-0.013l0.054,-0.013l0.054,-0.012l0.054,-0.012l0.055,-0.011l0.055,-0.01l0.056,-0.009l0.055,-0.009l0.056,-0.009l0.056,-0.007l0.056,-0.007l0.056,-0.006l0.057,-0.005l0.056,-0.005l0.057,-0.004l0.057,-0.003l0.058,-0.003l0.057,-0.002l0.058,-0.001l0.058,0l0.058,0Zm-0.106,0.75l-0.049,0.001l-0.048,0.002l-0.048,0.002l-0.047,0.003l-0.048,0.003l-0.047,0.004l-0.047,0.004l-0.047,0.005l-0.047,0.006l-0.046,0.006l-0.047,0.007l-0.046,0.007l-0.046,0.008l-0.045,0.009l-0.046,0.009l-0.045,0.009l-0.045,0.011l-0.045,0.01l-0.045,0.011l-0.045,0.012l-0.044,0.012l-0.044,0.013l-0.044,0.014l-0.043,0.014l-0.044,0.014l-0.043,0.015l-0.043,0.015l-0.042,0.016l-0.043,0.017l-0.042,0.017l-0.042,0.017l-0.042,0.018l-0.041,0.018l-0.041,0.019l-0.041,0.02l-0.04,0.02l-0.041,0.02l-0.04,0.021l-0.04,0.021l-0.039,0.022l-0.039,0.022l-0.039,0.023l-0.039,0.023l-0.038,0.023l-0.038,0.024l-0.038,0.025l-0.037,0.025l-0.037,0.025l-0.037,0.026l-0.036,0.026l-0.037,0.027l-0.035,0.027l-0.036,0.028l-0.035,0.028l-0.035,0.028l-0.034,0.029l-0.034,0.029l-0.034,0.029l-0.033,0.03l-0.033,0.031l-0.033,0.03l-0.032,0.032l-0.032,0.031l-0.031,0.032l-0.032,0.032l-0.03,0.033l-0.031,0.033l-0.03,0.033l-0.029,0.034l-0.029,0.034l-0.029,0.034l-0.028,0.035l-0.028,0.035l-0.028,0.036l-0.027,0.035l-0.027,0.037l-0.026,0.036l-0.026,0.037l-0.025,0.037l-0.025,0.037l-0.025,0.038l-0.024,0.038l-0.023,0.038l-0.023,0.039l-0.023,0.039l-0.022,0.039l-0.022,0.039l-0.021,0.04l-0.021,0.04l-0.02,0.041l-0.02,0.04l-0.02,0.041l-0.019,0.041l-0.018,0.041l-0.018,0.042l-0.017,0.042l-0.017,0.042l-0.017,0.043l-0.016,0.042l-0.015,0.043l-0.015,0.043l-0.014,0.044l-0.014,0.043l-0.014,0.044l-0.013,0.044l-0.012,0.044l-0.012,0.045l-0.011,0.045l-0.01,0.045l-0.011,0.045l-0.009,0.045l-0.009,0.046l-0.009,0.045l-0.008,0.046l-0.007,0.046l-0.007,0.047l-0.006,0.046l-0.006,0.047l-0.005,0.047l-0.004,0.047l-0.004,0.047l-0.003,0.048l-0.003,0.047l-0.002,0.048l-0.002,0.048l-0.001,0.049l0,0.048l0,0.048l0.001,0.048l0.002,0.048l0.002,0.048l0.003,0.048l0.003,0.047l0.004,0.048l0.004,0.047l0.005,0.047l0.006,0.046l0.006,0.047l0.007,0.046l0.007,0.046l0.008,0.046l0.009,0.046l0.009,0.046l0.009,0.045l0.011,0.045l0.01,0.045l0.011,0.045l0.012,0.044l0.012,0.045l0.013,0.044l0.014,0.043l0.014,0.044l0.014,0.043l0.015,0.044l0.015,0.042l0.016,0.043l0.017,0.043l0.017,0.042l0.017,0.042l0.018,0.041l0.018,0.042l0.019,0.041l0.02,0.041l0.02,0.04l0.02,0.041l0.021,0.04l0.021,0.039l0.022,0.04l0.022,0.039l0.023,0.039l0.023,0.039l0.023,0.038l0.024,0.038l0.025,0.038l0.025,0.037l0.025,0.037l0.026,0.037l0.026,0.036l0.027,0.036l0.027,0.036l0.028,0.035l0.028,0.036l0.028,0.034l0.029,0.035l0.029,0.034l0.029,0.034l0.03,0.033l0.031,0.033l0.03,0.032l0.032,0.033l0.031,0.032l0.032,0.031l0.032,0.031l0.033,0.031l0.033,0.03l0.033,0.03l0.034,0.03l0.034,0.029l0.034,0.029l0.035,0.028l0.035,0.028l0.036,0.028l0.035,0.027l0.037,0.026l0.036,0.027l0.037,0.025l0.037,0.026l0.037,0.025l0.038,0.024l0.038,0.024l0.038,0.024l0.039,0.023l0.039,0.023l0.039,0.022l0.039,0.022l0.04,0.021l0.04,0.021l0.041,0.02l0.04,0.02l0.041,0.019l0.041,0.019l0.041,0.019l0.042,0.018l0.042,0.017l0.042,0.017l0.043,0.017l0.042,0.015l0.043,0.016l0.043,0.015l0.044,0.014l0.043,0.014l0.044,0.013l0.044,0.013l0.044,0.013l0.045,0.011l0.045,0.011l0.045,0.011l0.045,0.01l0.045,0.01l0.046,0.009l0.045,0.008l0.046,0.008l0.046,0.008l0.047,0.006l0.046,0.007l0.047,0.005l0.047,0.005l0.047,0.005l0.047,0.004l0.048,0.003l0.047,0.003l0.048,0.002l0.048,0.001l0.049,0.001l0.048,0.001l0.048,-0.001l0.048,-0.001l0.048,-0.001l0.048,-0.002l0.048,-0.003l0.047,-0.003l0.048,-0.004l0.047,-0.005l0.047,-0.005l0.046,-0.005l0.047,-0.007l0.046,-0.006l0.046,-0.008l0.046,-0.008l0.046,-0.008l0.046,-0.009l0.045,-0.01l0.045,-0.01l0.045,-0.011l0.045,-0.011l0.044,-0.011l0.045,-0.013l0.044,-0.013l0.043,-0.013l0.044,-0.014l0.043,-0.014l0.044,-0.015l0.042,-0.016l0.043,-0.015l0.043,-0.017l0.042,-0.017l0.042,-0.017l0.041,-0.018l0.042,-0.019l0.041,-0.019l0.041,-0.019l0.04,-0.02l0.041,-0.02l0.04,-0.021l0.039,-0.021l0.04,-0.022l0.039,-0.022l0.039,-0.023l0.039,-0.023l0.038,-0.024l0.038,-0.024l0.038,-0.024l0.037,-0.025l0.037,-0.026l0.037,-0.025l0.036,-0.027l0.036,-0.026l0.036,-0.027l0.035,-0.028l0.036,-0.028l0.034,-0.028l0.035,-0.029l0.034,-0.029l0.034,-0.03l0.033,-0.03l0.033,-0.03l0.032,-0.031l0.033,-0.031l0.032,-0.031l0.031,-0.032l0.031,-0.033l0.031,-0.032l0.03,-0.033l0.03,-0.033l0.03,-0.034l0.029,-0.034l0.029,-0.035l0.028,-0.034l0.028,-0.036l0.028,-0.035l0.027,-0.036l0.026,-0.036l0.027,-0.036l0.025,-0.037l0.026,-0.037l0.025,-0.037l0.024,-0.038l0.024,-0.038l0.024,-0.038l0.023,-0.039l0.023,-0.039l0.022,-0.039l0.022,-0.04l0.021,-0.039l0.021,-0.04l0.02,-0.041l0.02,-0.04l0.019,-0.041l0.019,-0.041l0.019,-0.042l0.018,-0.041l0.017,-0.042l0.017,-0.042l0.017,-0.043l0.015,-0.043l0.016,-0.042l0.015,-0.044l0.014,-0.043l0.014,-0.044l0.013,-0.043l0.013,-0.044l0.013,-0.045l0.011,-0.044l0.011,-0.045l0.011,-0.045l0.01,-0.045l0.01,-0.045l0.009,-0.046l0.008,-0.046l0.008,-0.046l0.008,-0.046l0.006,-0.046l0.007,-0.047l0.005,-0.046l0.005,-0.047l0.005,-0.047l0.004,-0.048l0.003,-0.047l0.003,-0.048l0.002,-0.048l0.001,-0.048l0.001,-0.048l0.001,-0.048l-0.001,-0.048l-0.001,-0.049l-0.001,-0.048l-0.002,-0.048l-0.003,-0.047l-0.003,-0.048l-0.004,-0.047l-0.005,-0.047l-0.005,-0.047l-0.005,-0.047l-0.007,-0.046l-0.006,-0.047l-0.008,-0.046l-0.008,-0.046l-0.008,-0.045l-0.009,-0.046l-0.01,-0.045l-0.01,-0.045l-0.011,-0.045l-0.011,-0.045l-0.011,-0.045l-0.013,-0.044l-0.013,-0.044l-0.013,-0.044l-0.014,-0.043l-0.014,-0.044l-0.015,-0.043l-0.016,-0.043l-0.015,-0.042l-0.017,-0.043l-0.017,-0.042l-0.017,-0.042l-0.018,-0.042l-0.019,-0.041l-0.019,-0.041l-0.019,-0.041l-0.02,-0.04l-0.02,-0.041l-0.021,-0.04l-0.021,-0.04l-0.022,-0.039l-0.022,-0.039l-0.023,-0.039l-0.023,-0.039l-0.024,-0.038l-0.024,-0.038l-0.024,-0.038l-0.025,-0.037l-0.026,-0.037l-0.025,-0.037l-0.027,-0.036l-0.026,-0.037l-0.027,-0.035l-0.028,-0.036l-0.028,-0.035l-0.028,-0.035l-0.029,-0.034l-0.029,-0.034l-0.03,-0.034l-0.03,-0.033l-0.03,-0.033l-0.031,-0.033l-0.031,-0.032l-0.031,-0.032l-0.032,-0.031l-0.033,-0.032l-0.032,-0.03l-0.033,-0.031l-0.033,-0.03l-0.034,-0.029l-0.034,-0.029l-0.035,-0.029l-0.034,-0.028l-0.036,-0.028l-0.035,-0.028l-0.036,-0.027l-0.036,-0.027l-0.036,-0.026l-0.037,-0.026l-0.037,-0.025l-0.037,-0.025l-0.038,-0.025l-0.038,-0.024l-0.038,-0.023l-0.039,-0.023l-0.039,-0.023l-0.039,-0.022l-0.04,-0.022l-0.039,-0.021l-0.04,-0.021l-0.041,-0.02l-0.04,-0.02l-0.041,-0.02l-0.041,-0.019l-0.042,-0.018l-0.041,-0.018l-0.042,-0.017l-0.042,-0.017l-0.043,-0.017l-0.043,-0.016l-0.042,-0.015l-0.044,-0.015l-0.043,-0.014l-0.044,-0.014l-0.043,-0.014l-0.044,-0.013l-0.045,-0.012l-0.044,-0.012l-0.045,-0.011l-0.045,-0.01l-0.045,-0.011l-0.045,-0.009l-0.046,-0.009l-0.046,-0.009l-0.046,-0.008l-0.046,-0.007l-0.046,-0.007l-0.047,-0.006l-0.046,-0.006l-0.047,-0.005l-0.047,-0.004l-0.048,-0.004l-0.047,-0.003l-0.048,-0.003l-0.048,-0.002l-0.048,-0.002l-0.048,-0.001l-0.048,0l-0.048,0Z" style="fill:#aaa;"/><circle cx="4.855" cy="4.855" r="2.25" style="fill:#84a341;"/></svg>